<svg width="212" height="72" viewBox="0 0 212 72" fill="none" xmlns="http://www.w3.org/2000/svg">
<g filter="url(#filter0_d_14_67)">
<rect x="5" y="1" width="202" height="62" rx="31" stroke="white" stroke-width="2"/>
<mask id="path-2-outside-1_14_67" maskUnits="userSpaceOnUse" x="33" y="22" width="146" height="18" fill="black">
<rect fill="white" x="33" y="22" width="146" height="18"/>
<path d="M38.6919 24.0768C40.2598 24.0768 41.6353 24.3832 42.8183 24.9961C44.0156 25.609 44.9349 26.4856 45.5763 27.6258C46.232 28.7519 46.5598 30.0632 46.5598 31.5598C46.5598 33.0564 46.232 34.3677 45.5763 35.4937C44.9349 36.6054 44.0156 37.4678 42.8183 38.0807C41.6353 38.6936 40.2598 39 38.6919 39H33.4752V24.0768H38.6919ZM38.585 36.4558C40.1529 36.4558 41.3644 36.0282 42.2196 35.173C43.0748 34.3178 43.5024 33.1134 43.5024 31.5598C43.5024 30.0061 43.0748 28.7946 42.2196 27.9252C41.3644 27.0415 40.1529 26.5996 38.585 26.5996H36.4684V36.4558H38.585ZM54.0598 39.1924C52.9195 39.1924 51.8933 38.943 50.9811 38.4441C50.0689 37.931 49.3491 37.2112 48.8217 36.2847C48.3086 35.3583 48.052 34.2893 48.052 33.0777C48.052 31.8662 48.3157 30.7972 48.8431 29.8707C49.3847 28.9443 50.1188 28.2316 51.0452 27.7327C51.9717 27.2196 53.0051 26.9631 54.1453 26.9631C55.2856 26.9631 56.319 27.2196 57.2454 27.7327C58.1719 28.2316 58.8988 28.9443 59.4262 29.8707C59.9678 30.7972 60.2386 31.8662 60.2386 33.0777C60.2386 34.2893 59.9607 35.3583 59.4048 36.2847C58.8632 37.2112 58.122 37.931 57.1813 38.4441C56.2548 38.943 55.2143 39.1924 54.0598 39.1924ZM54.0598 36.5841C54.6014 36.5841 55.1074 36.4558 55.5778 36.1992C56.0624 35.9284 56.4472 35.5293 56.7323 35.0019C57.0174 34.4746 57.1599 33.8332 57.1599 33.0777C57.1599 31.9517 56.8606 31.0894 56.262 30.4908C55.6776 29.8779 54.9578 29.5714 54.1026 29.5714C53.2474 29.5714 52.5276 29.8779 51.9432 30.4908C51.3731 31.0894 51.088 31.9517 51.088 33.0777C51.088 34.2038 51.3659 35.0732 51.9218 35.6861C52.4919 36.2847 53.2046 36.5841 54.0598 36.5841ZM78.8541 27.1555L75.3905 39H72.1622L70.0028 30.7259L67.8434 39H64.5936L61.1087 27.1555H64.1447L66.2399 36.1778L68.5062 27.1555H71.6704L73.8939 36.1565L75.9892 27.1555H78.8541ZM87.0373 26.9844C88.4484 26.9844 89.5886 27.4334 90.4581 28.3314C91.3275 29.2151 91.7623 30.4551 91.7623 32.0515V39H88.7691V32.4577C88.7691 31.517 88.5339 30.7972 88.0635 30.2983C87.5932 29.7852 86.9518 29.5287 86.1393 29.5287C85.3126 29.5287 84.657 29.7852 84.1724 30.2983C83.702 30.7972 83.4668 31.517 83.4668 32.4577V39H80.4736V27.1555H83.4668V28.6307C83.8659 28.1176 84.3719 27.7185 84.9848 27.4334C85.612 27.1341 86.2961 26.9844 87.0373 26.9844ZM97.6019 23.1788V39H94.6087V23.1788H97.6019ZM105.819 39.1924C104.678 39.1924 103.652 38.943 102.74 38.4441C101.828 37.931 101.108 37.2112 100.581 36.2847C100.067 35.3583 99.8108 34.2893 99.8108 33.0777C99.8108 31.8662 100.075 30.7972 100.602 29.8707C101.144 28.9443 101.878 28.2316 102.804 27.7327C103.731 27.2196 104.764 26.9631 105.904 26.9631C107.044 26.9631 108.078 27.2196 109.004 27.7327C109.931 28.2316 110.658 28.9443 111.185 29.8707C111.727 30.7972 111.997 31.8662 111.997 33.0777C111.997 34.2893 111.72 35.3583 111.164 36.2847C110.622 37.2112 109.881 37.931 108.94 38.4441C108.014 38.943 106.973 39.1924 105.819 39.1924ZM105.819 36.5841C106.36 36.5841 106.866 36.4558 107.337 36.1992C107.821 35.9284 108.206 35.5293 108.491 35.0019C108.776 34.4746 108.919 33.8332 108.919 33.0777C108.919 31.9517 108.619 31.0894 108.021 30.4908C107.436 29.8779 106.717 29.5714 105.861 29.5714C105.006 29.5714 104.286 29.8779 103.702 30.4908C103.132 31.0894 102.847 31.9517 102.847 33.0777C102.847 34.2038 103.125 35.0732 103.681 35.6861C104.251 36.2847 104.963 36.5841 105.819 36.5841ZM113.423 33.035C113.423 31.8377 113.659 30.7758 114.129 29.8494C114.614 28.9229 115.262 28.2102 116.075 27.7114C116.901 27.2125 117.821 26.9631 118.833 26.9631C119.716 26.9631 120.486 27.1412 121.142 27.4976C121.811 27.8539 122.346 28.3029 122.745 28.8445V27.1555H125.76V39H122.745V37.2682C122.36 37.8241 121.826 38.2873 121.142 38.6579C120.472 39.0143 119.695 39.1924 118.811 39.1924C117.813 39.1924 116.901 38.9359 116.075 38.4227C115.262 37.9096 114.614 37.1898 114.129 36.2634C113.659 35.3226 113.423 34.2465 113.423 33.035ZM122.745 33.0777C122.745 32.3508 122.603 31.7308 122.317 31.2177C122.032 30.6903 121.648 30.2912 121.163 30.0204C120.678 29.7353 120.158 29.5928 119.602 29.5928C119.046 29.5928 118.533 29.7282 118.063 29.999C117.592 30.2698 117.208 30.6689 116.908 31.1963C116.623 31.7094 116.481 32.3223 116.481 33.035C116.481 33.7476 116.623 34.3748 116.908 34.9164C117.208 35.4438 117.592 35.85 118.063 36.1351C118.547 36.4201 119.061 36.5627 119.602 36.5627C120.158 36.5627 120.678 36.4273 121.163 36.1565C121.648 35.8714 122.032 35.4723 122.317 34.9592C122.603 34.4318 122.745 33.8047 122.745 33.0777ZM127.913 33.035C127.913 31.8377 128.149 30.7758 128.619 29.8494C129.104 28.9229 129.759 28.2102 130.586 27.7114C131.413 27.2125 132.332 26.9631 133.344 26.9631C134.114 26.9631 134.848 27.1341 135.546 27.4762C136.244 27.804 136.8 28.2459 137.214 28.8017V23.1788H140.25V39H137.214V37.2468C136.843 37.8312 136.323 38.3016 135.653 38.6579C134.983 39.0143 134.206 39.1924 133.322 39.1924C132.325 39.1924 131.413 38.9359 130.586 38.4227C129.759 37.9096 129.104 37.1898 128.619 36.2634C128.149 35.3226 127.913 34.2465 127.913 33.035ZM137.235 33.0777C137.235 32.3508 137.092 31.7308 136.807 31.2177C136.522 30.6903 136.138 30.2912 135.653 30.0204C135.168 29.7353 134.648 29.5928 134.092 29.5928C133.536 29.5928 133.023 29.7282 132.553 29.999C132.082 30.2698 131.698 30.6689 131.398 31.1963C131.113 31.7094 130.971 32.3223 130.971 33.035C130.971 33.7476 131.113 34.3748 131.398 34.9164C131.698 35.4438 132.082 35.85 132.553 36.1351C133.037 36.4201 133.551 36.5627 134.092 36.5627C134.648 36.5627 135.168 36.4273 135.653 36.1565C136.138 35.8714 136.522 35.4723 136.807 34.9592C137.092 34.4318 137.235 33.8047 137.235 33.0777ZM147.541 31.517C147.541 30.0489 147.868 28.7376 148.524 27.5831C149.194 26.4143 150.099 25.5092 151.239 24.8678C152.394 24.2122 153.684 23.8843 155.109 23.8843C156.777 23.8843 158.238 24.3119 159.492 25.1671C160.746 26.0223 161.623 27.2054 162.122 28.7162H158.68C158.337 28.0036 157.853 27.4691 157.226 27.1127C156.613 26.7564 155.9 26.5782 155.088 26.5782C154.218 26.5782 153.441 26.7849 152.757 27.1982C152.087 27.5973 151.56 28.1675 151.175 28.9086C150.805 29.6498 150.619 30.5193 150.619 31.517C150.619 32.5005 150.805 33.3699 151.175 34.1254C151.56 34.8665 152.087 35.4438 152.757 35.8571C153.441 36.2562 154.218 36.4558 155.088 36.4558C155.9 36.4558 156.613 36.2776 157.226 35.9213C157.853 35.5507 158.337 35.0091 158.68 34.2964H162.122C161.623 35.8215 160.746 37.0117 159.492 37.8669C158.252 38.7078 156.791 39.1283 155.109 39.1283C153.684 39.1283 152.394 38.8076 151.239 38.1662C150.099 37.5105 149.194 36.6054 148.524 35.4509C147.868 34.2964 147.541 32.9851 147.541 31.517ZM178.084 24.0768L172.61 39H168.976L163.502 24.0768H166.709L170.814 35.9427L174.898 24.0768H178.084Z"/>
</mask>
<path d="M38.6919 24.0768C40.2598 24.0768 41.6353 24.3832 42.8183 24.9961C44.0156 25.609 44.9349 26.4856 45.5763 27.6258C46.232 28.7519 46.5598 30.0632 46.5598 31.5598C46.5598 33.0564 46.232 34.3677 45.5763 35.4937C44.9349 36.6054 44.0156 37.4678 42.8183 38.0807C41.6353 38.6936 40.2598 39 38.6919 39H33.4752V24.0768H38.6919ZM38.585 36.4558C40.1529 36.4558 41.3644 36.0282 42.2196 35.173C43.0748 34.3178 43.5024 33.1134 43.5024 31.5598C43.5024 30.0061 43.0748 28.7946 42.2196 27.9252C41.3644 27.0415 40.1529 26.5996 38.585 26.5996H36.4684V36.4558H38.585ZM54.0598 39.1924C52.9195 39.1924 51.8933 38.943 50.9811 38.4441C50.0689 37.931 49.3491 37.2112 48.8217 36.2847C48.3086 35.3583 48.052 34.2893 48.052 33.0777C48.052 31.8662 48.3157 30.7972 48.8431 29.8707C49.3847 28.9443 50.1188 28.2316 51.0452 27.7327C51.9717 27.2196 53.0051 26.9631 54.1453 26.9631C55.2856 26.9631 56.319 27.2196 57.2454 27.7327C58.1719 28.2316 58.8988 28.9443 59.4262 29.8707C59.9678 30.7972 60.2386 31.8662 60.2386 33.0777C60.2386 34.2893 59.9607 35.3583 59.4048 36.2847C58.8632 37.2112 58.122 37.931 57.1813 38.4441C56.2548 38.943 55.2143 39.1924 54.0598 39.1924ZM54.0598 36.5841C54.6014 36.5841 55.1074 36.4558 55.5778 36.1992C56.0624 35.9284 56.4472 35.5293 56.7323 35.0019C57.0174 34.4746 57.1599 33.8332 57.1599 33.0777C57.1599 31.9517 56.8606 31.0894 56.262 30.4908C55.6776 29.8779 54.9578 29.5714 54.1026 29.5714C53.2474 29.5714 52.5276 29.8779 51.9432 30.4908C51.3731 31.0894 51.088 31.9517 51.088 33.0777C51.088 34.2038 51.3659 35.0732 51.9218 35.6861C52.4919 36.2847 53.2046 36.5841 54.0598 36.5841ZM78.8541 27.1555L75.3905 39H72.1622L70.0028 30.7259L67.8434 39H64.5936L61.1087 27.1555H64.1447L66.2399 36.1778L68.5062 27.1555H71.6704L73.8939 36.1565L75.9892 27.1555H78.8541ZM87.0373 26.9844C88.4484 26.9844 89.5886 27.4334 90.4581 28.3314C91.3275 29.2151 91.7623 30.4551 91.7623 32.0515V39H88.7691V32.4577C88.7691 31.517 88.5339 30.7972 88.0635 30.2983C87.5932 29.7852 86.9518 29.5287 86.1393 29.5287C85.3126 29.5287 84.657 29.7852 84.1724 30.2983C83.702 30.7972 83.4668 31.517 83.4668 32.4577V39H80.4736V27.1555H83.4668V28.6307C83.8659 28.1176 84.3719 27.7185 84.9848 27.4334C85.612 27.1341 86.2961 26.9844 87.0373 26.9844ZM97.6019 23.1788V39H94.6087V23.1788H97.6019ZM105.819 39.1924C104.678 39.1924 103.652 38.943 102.74 38.4441C101.828 37.931 101.108 37.2112 100.581 36.2847C100.067 35.3583 99.8108 34.2893 99.8108 33.0777C99.8108 31.8662 100.075 30.7972 100.602 29.8707C101.144 28.9443 101.878 28.2316 102.804 27.7327C103.731 27.2196 104.764 26.9631 105.904 26.9631C107.044 26.9631 108.078 27.2196 109.004 27.7327C109.931 28.2316 110.658 28.9443 111.185 29.8707C111.727 30.7972 111.997 31.8662 111.997 33.0777C111.997 34.2893 111.72 35.3583 111.164 36.2847C110.622 37.2112 109.881 37.931 108.94 38.4441C108.014 38.943 106.973 39.1924 105.819 39.1924ZM105.819 36.5841C106.36 36.5841 106.866 36.4558 107.337 36.1992C107.821 35.9284 108.206 35.5293 108.491 35.0019C108.776 34.4746 108.919 33.8332 108.919 33.0777C108.919 31.9517 108.619 31.0894 108.021 30.4908C107.436 29.8779 106.717 29.5714 105.861 29.5714C105.006 29.5714 104.286 29.8779 103.702 30.4908C103.132 31.0894 102.847 31.9517 102.847 33.0777C102.847 34.2038 103.125 35.0732 103.681 35.6861C104.251 36.2847 104.963 36.5841 105.819 36.5841ZM113.423 33.035C113.423 31.8377 113.659 30.7758 114.129 29.8494C114.614 28.9229 115.262 28.2102 116.075 27.7114C116.901 27.2125 117.821 26.9631 118.833 26.9631C119.716 26.9631 120.486 27.1412 121.142 27.4976C121.811 27.8539 122.346 28.3029 122.745 28.8445V27.1555H125.76V39H122.745V37.2682C122.36 37.8241 121.826 38.2873 121.142 38.6579C120.472 39.0143 119.695 39.1924 118.811 39.1924C117.813 39.1924 116.901 38.9359 116.075 38.4227C115.262 37.9096 114.614 37.1898 114.129 36.2634C113.659 35.3226 113.423 34.2465 113.423 33.035ZM122.745 33.0777C122.745 32.3508 122.603 31.7308 122.317 31.2177C122.032 30.6903 121.648 30.2912 121.163 30.0204C120.678 29.7353 120.158 29.5928 119.602 29.5928C119.046 29.5928 118.533 29.7282 118.063 29.999C117.592 30.2698 117.208 30.6689 116.908 31.1963C116.623 31.7094 116.481 32.3223 116.481 33.035C116.481 33.7476 116.623 34.3748 116.908 34.9164C117.208 35.4438 117.592 35.85 118.063 36.1351C118.547 36.4201 119.061 36.5627 119.602 36.5627C120.158 36.5627 120.678 36.4273 121.163 36.1565C121.648 35.8714 122.032 35.4723 122.317 34.9592C122.603 34.4318 122.745 33.8047 122.745 33.0777ZM127.913 33.035C127.913 31.8377 128.149 30.7758 128.619 29.8494C129.104 28.9229 129.759 28.2102 130.586 27.7114C131.413 27.2125 132.332 26.9631 133.344 26.9631C134.114 26.9631 134.848 27.1341 135.546 27.4762C136.244 27.804 136.8 28.2459 137.214 28.8017V23.1788H140.25V39H137.214V37.2468C136.843 37.8312 136.323 38.3016 135.653 38.6579C134.983 39.0143 134.206 39.1924 133.322 39.1924C132.325 39.1924 131.413 38.9359 130.586 38.4227C129.759 37.9096 129.104 37.1898 128.619 36.2634C128.149 35.3226 127.913 34.2465 127.913 33.035ZM137.235 33.0777C137.235 32.3508 137.092 31.7308 136.807 31.2177C136.522 30.6903 136.138 30.2912 135.653 30.0204C135.168 29.7353 134.648 29.5928 134.092 29.5928C133.536 29.5928 133.023 29.7282 132.553 29.999C132.082 30.2698 131.698 30.6689 131.398 31.1963C131.113 31.7094 130.971 32.3223 130.971 33.035C130.971 33.7476 131.113 34.3748 131.398 34.9164C131.698 35.4438 132.082 35.85 132.553 36.1351C133.037 36.4201 133.551 36.5627 134.092 36.5627C134.648 36.5627 135.168 36.4273 135.653 36.1565C136.138 35.8714 136.522 35.4723 136.807 34.9592C137.092 34.4318 137.235 33.8047 137.235 33.0777ZM147.541 31.517C147.541 30.0489 147.868 28.7376 148.524 27.5831C149.194 26.4143 150.099 25.5092 151.239 24.8678C152.394 24.2122 153.684 23.8843 155.109 23.8843C156.777 23.8843 158.238 24.3119 159.492 25.1671C160.746 26.0223 161.623 27.2054 162.122 28.7162H158.68C158.337 28.0036 157.853 27.4691 157.226 27.1127C156.613 26.7564 155.9 26.5782 155.088 26.5782C154.218 26.5782 153.441 26.7849 152.757 27.1982C152.087 27.5973 151.56 28.1675 151.175 28.9086C150.805 29.6498 150.619 30.5193 150.619 31.517C150.619 32.5005 150.805 33.3699 151.175 34.1254C151.56 34.8665 152.087 35.4438 152.757 35.8571C153.441 36.2562 154.218 36.4558 155.088 36.4558C155.9 36.4558 156.613 36.2776 157.226 35.9213C157.853 35.5507 158.337 35.0091 158.68 34.2964H162.122C161.623 35.8215 160.746 37.0117 159.492 37.8669C158.252 38.7078 156.791 39.1283 155.109 39.1283C153.684 39.1283 152.394 38.8076 151.239 38.1662C150.099 37.5105 149.194 36.6054 148.524 35.4509C147.868 34.2964 147.541 32.9851 147.541 31.517ZM178.084 24.0768L172.61 39H168.976L163.502 24.0768H166.709L170.814 35.9427L174.898 24.0768H178.084Z" fill="white"/>
<path d="M42.8183 24.9961L42.6689 25.2844L42.6703 25.2851L42.8183 24.9961ZM45.5763 27.6258L45.2933 27.785L45.2957 27.7892L45.5763 27.6258ZM45.5763 35.4937L45.2957 35.3303L45.2951 35.3314L45.5763 35.4937ZM42.8183 38.0807L42.6703 37.7916L42.6689 37.7924L42.8183 38.0807ZM33.4752 39H33.1505V39.3247H33.4752V39ZM33.4752 24.0768V23.7521H33.1505V24.0768H33.4752ZM42.2196 35.173L41.9901 34.9434L41.9901 34.9434L42.2196 35.173ZM42.2196 27.9252L41.9863 28.151L41.9882 28.1528L42.2196 27.9252ZM36.4684 26.5996V26.2749H36.1437V26.5996H36.4684ZM36.4684 36.4558H36.1437V36.7805H36.4684V36.4558ZM38.6919 24.0768V24.4014C40.217 24.4014 41.5396 24.6993 42.6689 25.2844L42.8183 24.9961L42.9676 24.7078C41.7309 24.0671 40.3026 23.7521 38.6919 23.7521V24.0768ZM42.8183 24.9961L42.6703 25.2851C43.8125 25.8698 44.6841 26.702 45.2933 27.785L45.5763 27.6258L45.8593 27.4667C45.1857 26.2692 44.2186 25.3482 42.9662 24.7071L42.8183 24.9961ZM45.5763 27.6258L45.2957 27.7892C45.9184 28.8586 46.2351 30.1119 46.2351 31.5598H46.5598H46.8845C46.8845 30.0144 46.5455 28.6451 45.8569 27.4625L45.5763 27.6258ZM46.5598 31.5598H46.2351C46.2351 33.0076 45.9184 34.2609 45.2957 35.3303L45.5763 35.4937L45.8569 35.6571C46.5455 34.4745 46.8845 33.1051 46.8845 31.5598H46.5598ZM45.5763 35.4937L45.2951 35.3314C44.6865 36.3863 43.8147 37.2058 42.6703 37.7916L42.8183 38.0807L42.9662 38.3697C44.2164 37.7297 45.1833 36.8246 45.8575 35.6559L45.5763 35.4937ZM42.8183 38.0807L42.6689 37.7924C41.5396 38.3775 40.217 38.6753 38.6919 38.6753V39V39.3247C40.3026 39.3247 41.7309 39.0097 42.9676 38.369L42.8183 38.0807ZM38.6919 39V38.6753H33.4752V39V39.3247H38.6919V39ZM33.4752 39H33.7999V24.0768H33.4752H33.1505V39H33.4752ZM33.4752 24.0768V24.4014H38.6919V24.0768V23.7521H33.4752V24.0768ZM38.585 36.4558V36.7805C40.2124 36.7805 41.5166 36.3352 42.4492 35.4026L42.2196 35.173L41.9901 34.9434C41.2123 35.7212 40.0934 36.1311 38.585 36.1311V36.4558ZM42.2196 35.173L42.4492 35.4026C43.3813 34.4705 43.8271 33.1738 43.8271 31.5598H43.5024H43.1778C43.1778 33.0529 42.7684 34.1651 41.9901 34.9434L42.2196 35.173ZM43.5024 31.5598H43.8271C43.8271 29.9454 43.3812 28.6431 42.4511 27.6975L42.2196 27.9252L41.9882 28.1528C42.7684 28.9461 43.1778 30.0669 43.1778 31.5598H43.5024ZM42.2196 27.9252L42.453 27.6994C41.5209 26.7362 40.2154 26.2749 38.585 26.2749V26.5996V26.9243C40.0905 26.9243 41.208 27.3467 41.9863 28.151L42.2196 27.9252ZM38.585 26.5996V26.2749H36.4684V26.5996V26.9243H38.585V26.5996ZM36.4684 26.5996H36.1437V36.4558H36.4684H36.7931V26.5996H36.4684ZM36.4684 36.4558V36.7805H38.585V36.4558V36.1311H36.4684V36.4558ZM50.9811 38.4441L50.8219 38.7271L50.8253 38.729L50.9811 38.4441ZM48.8217 36.2847L48.5377 36.4421L48.5395 36.4454L48.8217 36.2847ZM48.8431 29.8707L48.5628 29.7069L48.5609 29.7101L48.8431 29.8707ZM51.0452 27.7327L51.1992 28.0186L51.2025 28.0168L51.0452 27.7327ZM57.2454 27.7327L57.0881 28.0168L57.0915 28.0186L57.2454 27.7327ZM59.4262 29.8707L59.144 30.0314L59.1459 30.0346L59.4262 29.8707ZM59.4048 36.2847L59.1264 36.1177L59.1245 36.1209L59.4048 36.2847ZM57.1813 38.4441L57.3352 38.73L57.3368 38.7292L57.1813 38.4441ZM55.5778 36.1992L55.7333 36.4843L55.7362 36.4827L55.5778 36.1992ZM56.7323 35.0019L57.0179 35.1563L57.0179 35.1563L56.7323 35.0019ZM56.262 30.4908L56.0269 30.7149L56.0324 30.7203L56.262 30.4908ZM51.9432 30.4908L51.7082 30.2667L51.7081 30.2668L51.9432 30.4908ZM51.9218 35.6861L51.6812 35.9043L51.6867 35.91L51.9218 35.6861ZM54.0598 39.1924V38.8677C52.9686 38.8677 51.9968 38.6295 51.1369 38.1592L50.9811 38.4441L50.8253 38.729C51.7898 39.2565 52.8705 39.5171 54.0598 39.5171V39.1924ZM50.9811 38.4441L51.1403 38.1611C50.2804 37.6774 49.6027 37.0004 49.1039 36.1241L48.8217 36.2847L48.5395 36.4454C49.0955 37.422 49.8574 38.1846 50.8219 38.7271L50.9811 38.4441ZM48.8217 36.2847L49.1057 36.1274C48.6229 35.2557 48.3767 34.2423 48.3767 33.0777H48.052H47.7273C47.7273 34.3363 47.9943 35.4609 48.5377 36.4421L48.8217 36.2847ZM48.052 33.0777H48.3767C48.3767 31.9147 48.6294 30.9025 49.1253 30.0314L48.8431 29.8707L48.5609 29.7101C48.0021 30.6919 47.7273 31.8177 47.7273 33.0777H48.052ZM48.8431 29.8707L49.1234 30.0346C49.6355 29.1586 50.3263 28.4886 51.1992 28.0186L51.0452 27.7327L50.8913 27.4469C49.9112 27.9746 49.1339 28.73 48.5628 29.7069L48.8431 29.8707ZM51.0452 27.7327L51.2025 28.0168C52.0772 27.5323 53.0558 27.2877 54.1453 27.2877V26.9631V26.6384C52.9544 26.6384 51.8662 26.9069 50.8879 27.4487L51.0452 27.7327ZM54.1453 26.9631V27.2877C55.2349 27.2877 56.2135 27.5323 57.0881 28.0168L57.2454 27.7327L57.4027 27.4487C56.4245 26.9069 55.3363 26.6384 54.1453 26.6384V26.9631ZM57.2454 27.7327L57.0915 28.0186C57.9636 28.4882 58.6464 29.1571 59.144 30.0314L59.4262 29.8707L59.7084 29.7101C59.1513 28.7314 58.3802 27.975 57.3994 27.4469L57.2454 27.7327ZM59.4262 29.8707L59.1459 30.0346C59.6549 30.9052 59.9139 31.9162 59.9139 33.0777H60.2386H60.5633C60.5633 31.8162 60.2808 30.6892 59.7065 29.7069L59.4262 29.8707ZM60.2386 33.0777H59.9139C59.9139 34.2377 59.6484 35.2476 59.1264 36.1177L59.4048 36.2847L59.6832 36.4518C60.2729 35.4689 60.5633 34.3408 60.5633 33.0777H60.2386ZM59.4048 36.2847L59.1245 36.1209C58.6127 36.9964 57.9146 37.6743 57.0258 38.1591L57.1813 38.4441L57.3368 38.7292C58.3294 38.1877 59.1137 37.426 59.6851 36.4486L59.4048 36.2847ZM57.1813 38.4441L57.0274 38.1582C56.1527 38.6292 55.1659 38.8677 54.0598 38.8677V39.1924V39.5171C55.2627 39.5171 56.357 39.2568 57.3352 38.73L57.1813 38.4441ZM54.0598 36.5841V36.9087C54.6551 36.9087 55.2147 36.7671 55.7333 36.4843L55.5778 36.1992L55.4223 35.9142C55.0002 36.1444 54.5477 36.2594 54.0598 36.2594V36.5841ZM55.5778 36.1992L55.7362 36.4827C56.2789 36.1794 56.706 35.7334 57.0179 35.1563L56.7323 35.0019L56.4467 34.8475C56.1885 35.3252 55.8459 35.6774 55.4194 35.9158L55.5778 36.1992ZM56.7323 35.0019L57.0179 35.1563C57.3345 34.5708 57.4846 33.8733 57.4846 33.0777H57.1599H56.8352C56.8352 33.793 56.7003 34.3784 56.4467 34.8475L56.7323 35.0019ZM57.1599 33.0777H57.4846C57.4846 31.895 57.1691 30.9387 56.4915 30.2612L56.262 30.4908L56.0324 30.7203C56.5521 31.2401 56.8352 32.0085 56.8352 33.0777H57.1599ZM56.262 30.4908L56.4969 30.2667C55.8506 29.5888 55.0456 29.2467 54.1026 29.2467V29.5714V29.8961C54.87 29.8961 55.5045 30.1669 56.027 30.7148L56.262 30.4908ZM54.1026 29.5714V29.2467C53.1596 29.2467 52.3546 29.5888 51.7082 30.2667L51.9432 30.4908L52.1782 30.7148C52.7006 30.1669 53.3352 29.8961 54.1026 29.8961V29.5714ZM51.9432 30.4908L51.7081 30.2668C51.0623 30.9449 50.7633 31.8991 50.7633 33.0777H51.088H51.4127C51.4127 32.0044 51.6839 31.2339 52.1783 30.7147L51.9432 30.4908ZM51.088 33.0777H50.7633C50.7633 34.255 51.0543 35.2129 51.6813 35.9042L51.9218 35.6861L52.1623 35.468C51.6776 34.9335 51.4127 34.1525 51.4127 33.0777H51.088ZM51.9218 35.6861L51.6867 35.91C52.3205 36.5755 53.1192 36.9087 54.0598 36.9087V36.5841V36.2594C53.29 36.2594 52.6634 35.994 52.1569 35.4622L51.9218 35.6861ZM78.8541 27.1555L79.1657 27.2466L79.2873 26.8308H78.8541V27.1555ZM75.3905 39V39.3247H75.6339L75.7022 39.0911L75.3905 39ZM72.1622 39L71.848 39.082L71.9113 39.3247H72.1622V39ZM70.0028 30.7259L70.3169 30.6439L70.0028 29.4402L69.6886 30.6439L70.0028 30.7259ZM67.8434 39V39.3247H68.0942L68.1576 39.082L67.8434 39ZM64.5936 39L64.2822 39.0916L64.3507 39.3247H64.5936V39ZM61.1087 27.1555V26.8308H60.6747L60.7972 27.2471L61.1087 27.1555ZM64.1447 27.1555L64.4609 27.082L64.4026 26.8308H64.1447V27.1555ZM66.2399 36.1778L65.9236 36.2513L66.5548 36.2569L66.2399 36.1778ZM68.5062 27.1555V26.8308H68.253L68.1913 27.0764L68.5062 27.1555ZM71.6704 27.1555L71.9856 27.0776L71.9247 26.8308H71.6704V27.1555ZM73.8939 36.1565L73.5787 36.2343L74.2102 36.2301L73.8939 36.1565ZM75.9892 27.1555V26.8308H75.7314L75.6729 27.0819L75.9892 27.1555ZM78.8541 27.1555L78.5425 27.0644L75.0789 38.9089L75.3905 39L75.7022 39.0911L79.1657 27.2466L78.8541 27.1555ZM75.3905 39V38.6753H72.1622V39V39.3247H75.3905V39ZM72.1622 39L72.4763 38.918L70.3169 30.6439L70.0028 30.7259L69.6886 30.8079L71.848 39.082L72.1622 39ZM70.0028 30.7259L69.6886 30.6439L67.5292 38.918L67.8434 39L68.1576 39.082L70.3169 30.8079L70.0028 30.7259ZM67.8434 39V38.6753H64.5936V39V39.3247H67.8434V39ZM64.5936 39L64.9051 38.9084L61.4202 27.0638L61.1087 27.1555L60.7972 27.2471L64.2822 39.0916L64.5936 39ZM61.1087 27.1555V27.4802H64.1447V27.1555V26.8308H61.1087V27.1555ZM64.1447 27.1555L63.8284 27.2289L65.9236 36.2513L66.2399 36.1778L66.5562 36.1044L64.4609 27.082L64.1447 27.1555ZM66.2399 36.1778L66.5548 36.2569L68.8211 27.2346L68.5062 27.1555L68.1913 27.0764L65.925 36.0987L66.2399 36.1778ZM68.5062 27.1555V27.4802H71.6704V27.1555V26.8308H68.5062V27.1555ZM71.6704 27.1555L71.3552 27.2333L73.5787 36.2343L73.8939 36.1565L74.2092 36.0786L71.9856 27.0776L71.6704 27.1555ZM73.8939 36.1565L74.2102 36.2301L76.3054 27.2291L75.9892 27.1555L75.6729 27.0819L73.5777 36.0828L73.8939 36.1565ZM75.9892 27.1555V27.4802H78.8541V27.1555V26.8308H75.9892V27.1555ZM90.4581 28.3314L90.2248 28.5572L90.2266 28.5591L90.4581 28.3314ZM91.7623 39V39.3247H92.087V39H91.7623ZM88.7691 39H88.4444V39.3247H88.7691V39ZM88.0635 30.2983L87.8242 30.5178L87.8273 30.5211L88.0635 30.2983ZM84.1724 30.2983L83.9363 30.0754L83.9361 30.0756L84.1724 30.2983ZM83.4668 39V39.3247H83.7915V39H83.4668ZM80.4736 39H80.1489V39.3247H80.4736V39ZM80.4736 27.1555V26.8308H80.1489V27.1555H80.4736ZM83.4668 27.1555H83.7915V26.8308H83.4668V27.1555ZM83.4668 28.6307H83.1421V29.577L83.7231 28.83L83.4668 28.6307ZM84.9848 27.4334L85.1218 27.7278L85.1247 27.7264L84.9848 27.4334ZM87.0373 26.9844V27.3091C88.3729 27.3091 89.4247 27.7308 90.2248 28.5572L90.4581 28.3314L90.6914 28.1055C89.7526 27.136 88.5239 26.6598 87.0373 26.6598V26.9844ZM90.4581 28.3314L90.2266 28.5591C91.0205 29.366 91.4376 30.5148 91.4376 32.0515H91.7623H92.087C92.087 30.3955 91.6346 29.0642 90.6895 28.1037L90.4581 28.3314ZM91.7623 32.0515H91.4376V39H91.7623H92.087V32.0515H91.7623ZM91.7623 39V38.6753H88.7691V39V39.3247H91.7623V39ZM88.7691 39H89.0938V32.4577H88.7691H88.4444V39H88.7691ZM88.7691 32.4577H89.0938C89.0938 31.4654 88.8452 30.6541 88.2998 30.0756L88.0635 30.2983L87.8273 30.5211C88.2225 30.9403 88.4444 31.5686 88.4444 32.4577H88.7691ZM88.0635 30.2983L88.3029 30.0789C87.7606 29.4874 87.0261 29.204 86.1393 29.204V29.5287V29.8533C86.8774 29.8533 87.4257 30.0831 87.8242 30.5177L88.0635 30.2983ZM86.1393 29.5287V29.204C85.24 29.204 84.4928 29.4861 83.9363 30.0754L84.1724 30.2983L84.4084 30.5213C84.8211 30.0843 85.3853 29.8533 86.1393 29.8533V29.5287ZM84.1724 30.2983L83.9361 30.0756C83.3907 30.6541 83.1421 31.4654 83.1421 32.4577H83.4668H83.7915C83.7915 31.5686 84.0134 30.9403 84.4086 30.5211L84.1724 30.2983ZM83.4668 32.4577H83.1421V39H83.4668H83.7915V32.4577H83.4668ZM83.4668 39V38.6753H80.4736V39V39.3247H83.4668V39ZM80.4736 39H80.7983V27.1555H80.4736H80.1489V39H80.4736ZM80.4736 27.1555V27.4802H83.4668V27.1555V26.8308H80.4736V27.1555ZM83.4668 27.1555H83.1421V28.6307H83.4668H83.7915V27.1555H83.4668ZM83.4668 28.6307L83.7231 28.83C84.0893 28.3593 84.5537 27.992 85.1217 27.7278L84.9848 27.4334L84.8479 27.139C84.1901 27.4449 83.6426 27.8759 83.2105 28.4314L83.4668 28.6307ZM84.9848 27.4334L85.1247 27.7264C85.7053 27.4493 86.3412 27.3091 87.0373 27.3091V26.9844V26.6598C86.251 26.6598 85.5187 26.8189 84.845 27.1404L84.9848 27.4334ZM97.6019 23.1788H97.9265V22.8541H97.6019V23.1788ZM97.6019 39V39.3247H97.9265V39H97.6019ZM94.6087 39H94.284V39.3247H94.6087V39ZM94.6087 23.1788V22.8541H94.284V23.1788H94.6087ZM97.6019 23.1788H97.2772V39H97.6019H97.9265V23.1788H97.6019ZM97.6019 39V38.6753H94.6087V39V39.3247H97.6019V39ZM94.6087 39H94.9333V23.1788H94.6087H94.284V39H94.6087ZM94.6087 23.1788V23.5035H97.6019V23.1788V22.8541H94.6087V23.1788ZM102.74 38.4441L102.581 38.7271L102.584 38.729L102.74 38.4441ZM100.581 36.2847L100.296 36.4421L100.298 36.4454L100.581 36.2847ZM100.602 29.8707L100.322 29.7069L100.32 29.7101L100.602 29.8707ZM102.804 27.7327L102.958 28.0186L102.961 28.0168L102.804 27.7327ZM109.004 27.7327L108.847 28.0168L108.85 28.0186L109.004 27.7327ZM111.185 29.8707L110.903 30.0314L110.905 30.0346L111.185 29.8707ZM111.164 36.2847L110.885 36.1177L110.883 36.1209L111.164 36.2847ZM108.94 38.4441L109.094 38.73L109.096 38.7292L108.94 38.4441ZM107.337 36.1992L107.492 36.4843L107.495 36.4827L107.337 36.1992ZM108.491 35.0019L108.777 35.1563L108.777 35.1563L108.491 35.0019ZM108.021 30.4908L107.786 30.7149L107.791 30.7203L108.021 30.4908ZM103.702 30.4908L103.467 30.2667L103.467 30.2668L103.702 30.4908ZM103.681 35.6861L103.44 35.9043L103.446 35.91L103.681 35.6861ZM105.819 39.1924V38.8677C104.727 38.8677 103.756 38.6295 102.896 38.1592L102.74 38.4441L102.584 38.729C103.549 39.2565 104.629 39.5171 105.819 39.5171V39.1924ZM102.74 38.4441L102.899 38.1611C102.039 37.6774 101.362 37.0004 100.863 36.1241L100.581 36.2847L100.298 36.4454C100.854 37.422 101.616 38.1846 102.581 38.7271L102.74 38.4441ZM100.581 36.2847L100.865 36.1274C100.382 35.2557 100.136 34.2423 100.136 33.0777H99.8108H99.4862C99.4862 34.3363 99.7531 35.4609 100.296 36.4421L100.581 36.2847ZM99.8108 33.0777H100.136C100.136 31.9147 100.388 30.9025 100.884 30.0314L100.602 29.8707L100.32 29.7101C99.7609 30.6919 99.4862 31.8177 99.4862 33.0777H99.8108ZM100.602 29.8707L100.882 30.0346C101.394 29.1586 102.085 28.4886 102.958 28.0186L102.804 27.7327L102.65 27.4469C101.67 27.9746 100.893 28.73 100.322 29.7069L100.602 29.8707ZM102.804 27.7327L102.961 28.0168C103.836 27.5323 104.815 27.2877 105.904 27.2877V26.9631V26.6384C104.713 26.6384 103.625 26.9069 102.647 27.4487L102.804 27.7327ZM105.904 26.9631V27.2877C106.994 27.2877 107.972 27.5323 108.847 28.0168L109.004 27.7327L109.162 27.4487C108.183 26.9069 107.095 26.6384 105.904 26.6384V26.9631ZM109.004 27.7327L108.85 28.0186C109.722 28.4882 110.405 29.1571 110.903 30.0314L111.185 29.8707L111.467 29.7101C110.91 28.7314 110.139 27.975 109.158 27.4469L109.004 27.7327ZM111.185 29.8707L110.905 30.0346C111.414 30.9052 111.673 31.9162 111.673 33.0777H111.997H112.322C112.322 31.8162 112.04 30.6892 111.465 29.7069L111.185 29.8707ZM111.997 33.0777H111.673C111.673 34.2377 111.407 35.2476 110.885 36.1177L111.164 36.2847L111.442 36.4518C112.032 35.4689 112.322 34.3408 112.322 33.0777H111.997ZM111.164 36.2847L110.883 36.1209C110.371 36.9964 109.673 37.6743 108.785 38.1591L108.94 38.4441L109.096 38.7292C110.088 38.1877 110.873 37.426 111.444 36.4486L111.164 36.2847ZM108.94 38.4441L108.786 38.1582C107.911 38.6292 106.925 38.8677 105.819 38.8677V39.1924V39.5171C107.022 39.5171 108.116 39.2568 109.094 38.73L108.94 38.4441ZM105.819 36.5841V36.9087C106.414 36.9087 106.973 36.7671 107.492 36.4843L107.337 36.1992L107.181 35.9142C106.759 36.1444 106.307 36.2594 105.819 36.2594V36.5841ZM107.337 36.1992L107.495 36.4827C108.038 36.1794 108.465 35.7334 108.777 35.1563L108.491 35.0019L108.205 34.8475C107.947 35.3252 107.605 35.6774 107.178 35.9158L107.337 36.1992ZM108.491 35.0019L108.777 35.1563C109.093 34.5708 109.243 33.8733 109.243 33.0777H108.919H108.594C108.594 33.793 108.459 34.3784 108.205 34.8475L108.491 35.0019ZM108.919 33.0777H109.243C109.243 31.895 108.928 30.9387 108.25 30.2612L108.021 30.4908L107.791 30.7203C108.311 31.2401 108.594 32.0085 108.594 33.0777H108.919ZM108.021 30.4908L108.256 30.2667C107.609 29.5888 106.804 29.2467 105.861 29.2467V29.5714V29.8961C106.629 29.8961 107.263 30.1669 107.786 30.7148L108.021 30.4908ZM105.861 29.5714V29.2467C104.918 29.2467 104.113 29.5888 103.467 30.2667L103.702 30.4908L103.937 30.7148C104.459 30.1669 105.094 29.8961 105.861 29.8961V29.5714ZM103.702 30.4908L103.467 30.2668C102.821 30.9449 102.522 31.8991 102.522 33.0777H102.847H103.171C103.171 32.0044 103.443 31.2339 103.937 30.7147L103.702 30.4908ZM102.847 33.0777H102.522C102.522 34.255 102.813 35.2129 103.44 35.9042L103.681 35.6861L103.921 35.468C103.436 34.9335 103.171 34.1525 103.171 33.0777H102.847ZM103.681 35.6861L103.446 35.91C104.079 36.5755 104.878 36.9087 105.819 36.9087V36.5841V36.2594C105.049 36.2594 104.422 35.994 103.916 35.4622L103.681 35.6861ZM114.129 29.8494L113.841 29.6989L113.839 29.7024L114.129 29.8494ZM116.075 27.7114L115.907 27.4334L115.905 27.4347L116.075 27.7114ZM121.142 27.4976L120.987 27.7828L120.989 27.7842L121.142 27.4976ZM122.745 28.8445L122.484 29.0371L123.07 29.8325V28.8445H122.745ZM122.745 27.1555V26.8308H122.42V27.1555H122.745ZM125.76 27.1555H126.084V26.8308H125.76V27.1555ZM125.76 39V39.3247H126.084V39H125.76ZM122.745 39H122.42V39.3247H122.745V39ZM122.745 37.2682H123.07V36.2288L122.478 37.0834L122.745 37.2682ZM121.142 38.6579L121.294 38.9446L121.296 38.9434L121.142 38.6579ZM116.075 38.4227L115.901 38.6973L115.903 38.6986L116.075 38.4227ZM114.129 36.2634L113.838 36.4086L113.841 36.4139L114.129 36.2634ZM122.317 31.2177L122.032 31.3721L122.034 31.3754L122.317 31.2177ZM121.163 30.0204L120.998 30.3003L121.005 30.3038L121.163 30.0204ZM118.063 29.999L117.901 29.7176L117.901 29.7176L118.063 29.999ZM116.908 31.1963L116.626 31.036L116.625 31.0386L116.908 31.1963ZM116.908 34.9164L116.621 35.0677L116.626 35.0767L116.908 34.9164ZM118.063 36.1351L117.895 36.4128L117.898 36.4149L118.063 36.1351ZM121.163 36.1565L121.321 36.44L121.328 36.4363L121.163 36.1565ZM122.317 34.9592L122.601 35.1169L122.603 35.1136L122.317 34.9592ZM113.423 33.035H113.748C113.748 31.881 113.974 30.8708 114.418 29.9963L114.129 29.8494L113.839 29.7024C113.343 30.6809 113.099 31.7944 113.099 33.035H113.423ZM114.129 29.8494L114.417 29.9999C114.877 29.1201 115.487 28.4533 116.244 27.988L116.075 27.7114L115.905 27.4347C115.037 27.9671 114.35 28.7257 113.841 29.6989L114.129 29.8494ZM116.075 27.7114L116.242 27.9894C117.016 27.5225 117.877 27.2877 118.833 27.2877V26.9631V26.6384C117.764 26.6384 116.787 26.9025 115.907 27.4334L116.075 27.7114ZM118.833 26.9631V27.2877C119.672 27.2877 120.387 27.4567 120.987 27.7828L121.142 27.4976L121.297 27.2123C120.585 26.8257 119.76 26.6384 118.833 26.6384V26.9631ZM121.142 27.4976L120.989 27.7842C121.622 28.1207 122.117 28.5393 122.484 29.0371L122.745 28.8445L123.006 28.6519C122.575 28.0664 122.001 27.5871 121.294 27.2109L121.142 27.4976ZM122.745 28.8445H123.07V27.1555H122.745H122.42V28.8445H122.745ZM122.745 27.1555V27.4802H125.76V27.1555V26.8308H122.745V27.1555ZM125.76 27.1555H125.435V39H125.76H126.084V27.1555H125.76ZM125.76 39V38.6753H122.745V39V39.3247H125.76V39ZM122.745 39H123.07V37.2682H122.745H122.42V39H122.745ZM122.745 37.2682L122.478 37.0834C122.126 37.5915 121.633 38.0224 120.987 38.3724L121.142 38.6579L121.296 38.9434C122.018 38.5522 122.594 38.0567 123.012 37.453L122.745 37.2682ZM121.142 38.6579L120.989 38.3713C120.373 38.6988 119.65 38.8677 118.811 38.8677V39.1924V39.5171C119.739 39.5171 120.57 39.3297 121.294 38.9446L121.142 38.6579ZM118.811 39.1924V38.8677C117.872 38.8677 117.02 38.6272 116.246 38.1469L116.075 38.4227L115.903 38.6986C116.783 39.2445 117.755 39.5171 118.811 39.5171V39.1924ZM116.075 38.4227L116.248 38.1482C115.488 37.6683 114.877 36.9932 114.417 36.1129L114.129 36.2634L113.841 36.4139C114.35 37.3864 115.036 38.1509 115.901 38.6973L116.075 38.4227ZM114.129 36.2634L114.419 36.1182C113.975 35.2289 113.748 34.2038 113.748 33.035H113.423H113.099C113.099 34.2892 113.342 35.4164 113.839 36.4086L114.129 36.2634ZM122.745 33.0777H123.07C123.07 32.3086 122.919 31.6316 122.601 31.06L122.317 31.2177L122.034 31.3754C122.286 31.83 122.42 32.393 122.42 33.0777H122.745ZM122.317 31.2177L122.603 31.0633C122.291 30.4862 121.864 30.0403 121.321 29.737L121.163 30.0204L121.005 30.3038C121.431 30.5422 121.774 30.8944 122.032 31.3721L122.317 31.2177ZM121.163 30.0204L121.328 29.7405C120.794 29.4265 120.217 29.2681 119.602 29.2681V29.5928V29.9175C120.1 29.9175 120.563 30.0442 120.998 30.3003L121.163 30.0204ZM119.602 29.5928V29.2681C118.991 29.2681 118.422 29.4177 117.901 29.7176L118.063 29.999L118.225 30.2804C118.645 30.0387 119.102 29.9175 119.602 29.9175V29.5928ZM118.063 29.999L117.901 29.7176C117.375 30.0206 116.95 30.4643 116.626 31.036L116.908 31.1963L117.191 31.3566C117.465 30.8735 117.81 30.519 118.225 30.2804L118.063 29.999ZM116.908 31.1963L116.625 31.0386C116.307 31.6093 116.156 32.2789 116.156 33.035H116.481H116.805C116.805 32.3657 116.939 31.8095 117.192 31.354L116.908 31.1963ZM116.481 33.035H116.156C116.156 33.7917 116.308 34.4723 116.621 35.0676L116.908 34.9164L117.196 34.7652C116.939 34.2773 116.805 33.7036 116.805 33.035H116.481ZM116.908 34.9164L116.626 35.0767C116.95 35.6472 117.372 36.0961 117.895 36.4128L118.063 36.1351L118.231 35.8574C117.813 35.604 117.466 35.2404 117.191 34.7562L116.908 34.9164ZM118.063 36.1351L117.898 36.4149C118.431 36.7282 119 36.8874 119.602 36.8874V36.5627V36.238C119.121 36.238 118.664 36.1121 118.227 35.8552L118.063 36.1351ZM119.602 36.5627V36.8874C120.213 36.8874 120.788 36.7378 121.321 36.4399L121.163 36.1565L121.005 35.873C120.568 36.1168 120.103 36.238 119.602 36.238V36.5627ZM121.163 36.1565L121.328 36.4363C121.864 36.1206 122.289 35.6783 122.601 35.1169L122.317 34.9592L122.034 34.8015C121.775 35.2663 121.431 35.6222 120.998 35.8766L121.163 36.1565ZM122.317 34.9592L122.603 35.1136C122.919 34.5297 123.07 33.8472 123.07 33.0777H122.745H122.42C122.42 33.7621 122.286 34.3339 122.032 34.8048L122.317 34.9592ZM128.619 29.8494L128.331 29.6989L128.329 29.7024L128.619 29.8494ZM130.586 27.7114L130.754 27.9894L130.754 27.9894L130.586 27.7114ZM135.546 27.4762L135.403 27.7678L135.408 27.7701L135.546 27.4762ZM137.214 28.8017L136.953 28.9955L137.538 29.7825V28.8017H137.214ZM137.214 23.1788V22.8541H136.889V23.1788H137.214ZM140.25 23.1788H140.574V22.8541H140.25V23.1788ZM140.25 39V39.3247H140.574V39H140.25ZM137.214 39H136.889V39.3247H137.214V39ZM137.214 37.2468H137.538V36.1286L136.939 37.073L137.214 37.2468ZM135.653 38.6579L135.5 38.3713L135.5 38.3713L135.653 38.6579ZM130.586 38.4227L130.757 38.1469L130.757 38.1469L130.586 38.4227ZM128.619 36.2634L128.328 36.4086L128.331 36.4139L128.619 36.2634ZM136.807 31.2177L136.522 31.3721L136.524 31.3754L136.807 31.2177ZM135.653 30.0204L135.488 30.3003L135.495 30.3038L135.653 30.0204ZM132.553 29.999L132.391 29.7176L132.391 29.7176L132.553 29.999ZM131.398 31.1963L131.116 31.036L131.114 31.0386L131.398 31.1963ZM131.398 34.9164L131.111 35.0677L131.116 35.0767L131.398 34.9164ZM132.553 36.1351L132.385 36.4128L132.388 36.4149L132.553 36.1351ZM135.653 36.1565L135.811 36.44L135.818 36.4363L135.653 36.1565ZM136.807 34.9592L137.091 35.1169L137.093 35.1136L136.807 34.9592ZM127.913 33.035H128.238C128.238 31.881 128.464 30.8708 128.908 29.9963L128.619 29.8494L128.329 29.7024C127.833 30.6809 127.589 31.7944 127.589 33.035H127.913ZM128.619 29.8494L128.907 29.9999C129.366 29.1215 129.982 28.455 130.754 27.9894L130.586 27.7114L130.418 27.4334C129.536 27.9655 128.841 28.7242 128.331 29.6989L128.619 29.8494ZM130.586 27.7114L130.754 27.9894C131.527 27.5225 132.388 27.2877 133.344 27.2877V26.9631V26.6384C132.276 26.6384 131.298 26.9025 130.418 27.4334L130.586 27.7114ZM133.344 26.9631V27.2877C134.064 27.2877 134.749 27.4472 135.403 27.7678L135.546 27.4762L135.689 27.1846C134.946 26.821 134.164 26.6384 133.344 26.6384V26.9631ZM135.546 27.4762L135.408 27.7701C136.064 28.0778 136.575 28.4873 136.953 28.9955L137.214 28.8017L137.474 28.608C137.025 28.0044 136.425 27.5302 135.684 27.1823L135.546 27.4762ZM137.214 28.8017H137.538V23.1788H137.214H136.889V28.8017H137.214ZM137.214 23.1788V23.5035H140.25V23.1788V22.8541H137.214V23.1788ZM140.25 23.1788H139.925V39H140.25H140.574V23.1788H140.25ZM140.25 39V38.6753H137.214V39V39.3247H140.25V39ZM137.214 39H137.538V37.2468H137.214H136.889V39H137.214ZM137.214 37.2468L136.939 37.073C136.602 37.6053 136.126 38.0387 135.5 38.3713L135.653 38.6579L135.805 38.9446C136.52 38.5644 137.084 38.0571 137.488 37.4207L137.214 37.2468ZM135.653 38.6579L135.5 38.3713C134.885 38.6988 134.162 38.8677 133.322 38.8677V39.1924V39.5171C134.251 39.5171 135.081 39.3297 135.805 38.9446L135.653 38.6579ZM133.322 39.1924V38.8677C132.384 38.8677 131.531 38.6272 130.757 38.1469L130.586 38.4227L130.415 38.6986C131.294 39.2445 132.266 39.5171 133.322 39.5171V39.1924ZM130.586 38.4227L130.757 38.1469C129.983 37.6667 129.366 36.9919 128.907 36.1129L128.619 36.2634L128.331 36.4139C128.841 37.3878 129.535 38.1526 130.415 38.6986L130.586 38.4227ZM128.619 36.2634L128.909 36.1182C128.465 35.2289 128.238 34.2038 128.238 33.035H127.913H127.589C127.589 34.2892 127.832 35.4164 128.328 36.4086L128.619 36.2634ZM137.235 33.0777H137.56C137.56 32.3086 137.409 31.6316 137.091 31.06L136.807 31.2177L136.524 31.3754C136.776 31.83 136.91 32.393 136.91 33.0777H137.235ZM136.807 31.2177L137.093 31.0633C136.781 30.4862 136.354 30.0403 135.811 29.737L135.653 30.0204L135.495 30.3038C135.921 30.5422 136.264 30.8944 136.522 31.3721L136.807 31.2177ZM135.653 30.0204L135.818 29.7405C135.284 29.4265 134.707 29.2681 134.092 29.2681V29.5928V29.9175C134.589 29.9175 135.053 30.0442 135.488 30.3003L135.653 30.0204ZM134.092 29.5928V29.2681C133.481 29.2681 132.912 29.4177 132.391 29.7176L132.553 29.999L132.715 30.2804C133.135 30.0387 133.592 29.9175 134.092 29.9175V29.5928ZM132.553 29.999L132.391 29.7176C131.865 30.0206 131.44 30.4643 131.116 31.036L131.398 31.1963L131.681 31.3566C131.955 30.8735 132.3 30.519 132.715 30.2804L132.553 29.999ZM131.398 31.1963L131.114 31.0386C130.797 31.6093 130.646 32.2789 130.646 33.035H130.971H131.295C131.295 32.3657 131.429 31.8095 131.682 31.354L131.398 31.1963ZM130.971 33.035H130.646C130.646 33.7917 130.798 34.4723 131.111 35.0676L131.398 34.9164L131.686 34.7652C131.429 34.2773 131.295 33.7036 131.295 33.035H130.971ZM131.398 34.9164L131.116 35.0767C131.44 35.6472 131.862 36.0961 132.385 36.4128L132.553 36.1351L132.721 35.8574C132.303 35.604 131.955 35.2404 131.681 34.7562L131.398 34.9164ZM132.553 36.1351L132.388 36.4149C132.921 36.7282 133.49 36.8874 134.092 36.8874V36.5627V36.238C133.611 36.238 133.154 36.1121 132.717 35.8552L132.553 36.1351ZM134.092 36.5627V36.8874C134.703 36.8874 135.278 36.7378 135.811 36.4399L135.653 36.1565L135.495 35.873C135.058 36.1168 134.593 36.238 134.092 36.238V36.5627ZM135.653 36.1565L135.818 36.4363C136.354 36.1206 136.779 35.6783 137.091 35.1169L136.807 34.9592L136.524 34.8015C136.265 35.2663 135.921 35.6222 135.488 35.8766L135.653 36.1565ZM136.807 34.9592L137.093 35.1136C137.409 34.5297 137.56 33.8472 137.56 33.0777H137.235H136.91C136.91 33.7621 136.776 34.3339 136.522 34.8048L136.807 34.9592ZM148.524 27.5831L148.242 27.4216L148.242 27.4227L148.524 27.5831ZM151.239 24.8678L151.398 25.1508L151.4 25.1502L151.239 24.8678ZM162.122 28.7162V29.0409H162.571L162.43 28.6144L162.122 28.7162ZM158.68 28.7162L158.387 28.8567L158.475 29.0409H158.68V28.7162ZM157.226 27.1127L157.062 27.3934L157.065 27.395L157.226 27.1127ZM152.757 27.1982L152.923 27.4772L152.925 27.4761L152.757 27.1982ZM151.175 28.9086L150.887 28.759L150.885 28.7634L151.175 28.9086ZM151.175 34.1254L150.884 34.2684L150.887 34.275L151.175 34.1254ZM152.757 35.8571L152.587 36.1335L152.594 36.1376L152.757 35.8571ZM157.226 35.9213L157.389 36.202L157.391 36.2008L157.226 35.9213ZM158.68 34.2964V33.9717H158.475L158.387 34.1559L158.68 34.2964ZM162.122 34.2964L162.43 34.3973L162.57 33.9717H162.122V34.2964ZM159.492 37.8669L159.674 38.1356L159.675 38.1351L159.492 37.8669ZM151.239 38.1662L151.077 38.4477L151.082 38.45L151.239 38.1662ZM148.524 35.4509L148.242 35.6113L148.243 35.6139L148.524 35.4509ZM147.541 31.517H147.865C147.865 30.099 148.181 28.844 148.806 27.7434L148.524 27.5831L148.242 27.4227C147.555 28.6312 147.216 29.9988 147.216 31.517H147.541ZM148.524 27.5831L148.806 27.7445C149.447 26.625 150.311 25.7626 151.398 25.1508L151.239 24.8678L151.08 24.5848C149.887 25.2558 148.94 26.2036 148.242 27.4216L148.524 27.5831ZM151.239 24.8678L151.4 25.1502C152.502 24.5243 153.736 24.209 155.109 24.209V23.8843V23.5597C153.632 23.5597 152.286 23.9 151.079 24.5855L151.239 24.8678ZM155.109 23.8843V24.209C156.718 24.209 158.114 24.6206 159.309 25.4354L159.492 25.1671L159.675 24.8989C158.361 24.0033 156.835 23.5597 155.109 23.5597V23.8843ZM159.492 25.1671L159.309 25.4354C160.501 26.2484 161.336 27.3714 161.813 28.818L162.122 28.7162L162.43 28.6144C161.91 27.0393 160.991 25.7963 159.675 24.8989L159.492 25.1671ZM162.122 28.7162V28.3915H158.68V28.7162V29.0409H162.122V28.7162ZM158.68 28.7162L158.972 28.5757C158.604 27.8094 158.076 27.2226 157.386 26.8304L157.226 27.1127L157.065 27.395C157.629 27.7155 158.07 28.1977 158.387 28.8567L158.68 28.7162ZM157.226 27.1127L157.389 26.832C156.72 26.4429 155.949 26.2535 155.088 26.2535V26.5782V26.9029C155.851 26.9029 156.506 27.0699 157.062 27.3934L157.226 27.1127ZM155.088 26.5782V26.2535C154.164 26.2535 153.329 26.4737 152.589 26.9203L152.757 27.1982L152.925 27.4761C153.554 27.0961 154.272 26.9029 155.088 26.9029V26.5782ZM152.757 27.1982L152.591 26.9193C151.866 27.3515 151.298 27.9682 150.887 28.759L151.175 28.9086L151.463 29.0583C151.822 28.3667 152.309 27.8431 152.923 27.4772L152.757 27.1982ZM151.175 28.9086L150.885 28.7634C150.487 29.558 150.295 30.479 150.295 31.517H150.619H150.944C150.944 30.5595 151.122 29.7416 151.466 29.0538L151.175 28.9086ZM150.619 31.517H150.295C150.295 32.5417 150.488 33.4615 150.884 34.2684L151.175 34.1254L151.467 33.9824C151.121 33.2784 150.944 32.4592 150.944 31.517H150.619ZM151.175 34.1254L150.887 34.275C151.297 35.0649 151.864 35.6874 152.587 36.1335L152.757 35.8571L152.928 35.5808C152.311 35.2002 151.823 34.6681 151.463 33.9757L151.175 34.1254ZM152.757 35.8571L152.594 36.1376C153.332 36.5684 154.166 36.7805 155.088 36.7805V36.4558V36.1311C154.27 36.1311 153.551 35.944 152.921 35.5767L152.757 35.8571ZM155.088 36.4558V36.7805C155.949 36.7805 156.72 36.5911 157.389 36.202L157.226 35.9213L157.062 35.6406C156.506 35.9641 155.851 36.1311 155.088 36.1311V36.4558ZM157.226 35.9213L157.391 36.2008C158.078 35.7947 158.605 35.2024 158.972 34.4369L158.68 34.2964L158.387 34.1559C158.07 34.8158 157.628 35.3067 157.06 35.6417L157.226 35.9213ZM158.68 34.2964V34.6211H162.122V34.2964V33.9717H158.68V34.2964ZM162.122 34.2964L161.813 34.1955C161.335 35.6566 160.501 36.7862 159.309 37.5986L159.492 37.8669L159.675 38.1351C160.992 37.2372 161.91 35.9864 162.43 34.3973L162.122 34.2964ZM159.492 37.8669L159.31 37.5981C158.13 38.3982 156.734 38.8036 155.109 38.8036V39.1283V39.453C156.848 39.453 158.374 39.0174 159.674 38.1356L159.492 37.8669ZM155.109 39.1283V38.8036C153.734 38.8036 152.499 38.4949 151.397 37.8824L151.239 38.1662L151.082 38.45C152.288 39.1203 153.633 39.453 155.109 39.453V39.1283ZM151.239 38.1662L151.401 37.8847C150.311 37.2579 149.447 36.394 148.805 35.288L148.524 35.4509L148.243 35.6139C148.941 36.8169 149.887 37.7632 151.077 38.4477L151.239 38.1662ZM148.524 35.4509L148.806 35.2906C148.181 34.19 147.865 32.935 147.865 31.517H147.541H147.216C147.216 33.0352 147.555 34.4028 148.242 35.6113L148.524 35.4509ZM178.084 24.0768L178.388 24.1886L178.548 23.7521H178.084V24.0768ZM172.61 39V39.3247H172.837L172.915 39.1118L172.61 39ZM168.976 39L168.671 39.1118L168.749 39.3247H168.976V39ZM163.502 24.0768V23.7521H163.037L163.198 24.1886L163.502 24.0768ZM166.709 24.0768L167.016 23.9706L166.941 23.7521H166.709V24.0768ZM170.814 35.9427L170.507 36.0488L170.815 36.9381L171.121 36.0483L170.814 35.9427ZM174.898 24.0768V23.7521H174.666L174.591 23.9711L174.898 24.0768ZM178.084 24.0768L177.779 23.965L172.305 38.8882L172.61 39L172.915 39.1118L178.388 24.1886L178.084 24.0768ZM172.61 39V38.6753H168.976V39V39.3247H172.61V39ZM168.976 39L169.28 38.8882L163.807 23.965L163.502 24.0768L163.198 24.1886L168.671 39.1118L168.976 39ZM163.502 24.0768V24.4014H166.709V24.0768V23.7521H163.502V24.0768ZM166.709 24.0768L166.403 24.1829L170.507 36.0488L170.814 35.9427L171.121 35.8365L167.016 23.9706L166.709 24.0768ZM170.814 35.9427L171.121 36.0483L175.205 24.1824L174.898 24.0768L174.591 23.9711L170.507 35.837L170.814 35.9427ZM174.898 24.0768V24.4014H178.084V24.0768V23.7521H174.898V24.0768Z" fill="url(#paint0_linear_14_67)" mask="url(#path-2-outside-1_14_67)"/>
</g>
<defs>
<filter id="filter0_d_14_67" x="0" y="0" width="212" height="72" filterUnits="userSpaceOnUse" color-interpolation-filters="sRGB">
<feFlood flood-opacity="0" result="BackgroundImageFix"/>
<feColorMatrix in="SourceAlpha" type="matrix" values="0 0 0 0 0 0 0 0 0 0 0 0 0 0 0 0 0 0 127 0" result="hardAlpha"/>
<feOffset dy="4"/>
<feGaussianBlur stdDeviation="2"/>
<feComposite in2="hardAlpha" operator="out"/>
<feColorMatrix type="matrix" values="0 0 0 0 0 0 0 0 0 0 0 0 0 0 0 0 0 0 0.25 0"/>
<feBlend mode="normal" in2="BackgroundImageFix" result="effect1_dropShadow_14_67"/>
<feBlend mode="normal" in="SourceGraphic" in2="effect1_dropShadow_14_67" result="shape"/>
</filter>
<linearGradient id="paint0_linear_14_67" x1="124.813" y1="44.7244" x2="133.594" y2="64.1261" gradientUnits="userSpaceOnUse">
<stop stop-color="#FF8660"/>
<stop offset="1" stop-color="#9A33FF"/>
</linearGradient>
</defs>
</svg>
