<svg width="195" height="64" viewBox="0 0 195 64" fill="none" xmlns="http://www.w3.org/2000/svg">
<rect x="0.5" y="0.5" width="194" height="63" rx="31.5" fill="white"/>
<rect x="0.5" y="0.5" width="194" height="63" rx="31.5" fill="white"/>
<rect x="0.5" y="0.5" width="194" height="63" rx="31.5" stroke="white"/>
<mask id="path-2-outside-1_14_64" maskUnits="userSpaceOnUse" x="30" y="22" width="135" height="18" fill="black">
<rect fill="white" x="30" y="22" width="135" height="18"/>
<path d="M41.8659 28.5666C41.5238 27.9394 41.0535 27.4619 40.4548 27.1341C39.8562 26.8063 39.1578 26.6424 38.3596 26.6424C37.4759 26.6424 36.6919 26.8419 36.0078 27.241C35.3236 27.6401 34.7891 28.2102 34.4043 28.9514C34.0194 29.6926 33.827 30.5478 33.827 31.517C33.827 32.5147 34.0194 33.3842 34.4043 34.1254C34.8034 34.8665 35.3521 35.4367 36.0505 35.8358C36.749 36.2349 37.5614 36.4344 38.4879 36.4344C39.6281 36.4344 40.5617 36.1351 41.2886 35.5364C42.0156 34.9235 42.493 34.0755 42.7211 32.9922H37.5899V30.7046H45.6715V33.3129C45.472 34.3534 45.0444 35.3155 44.3887 36.1992C43.7331 37.0829 42.885 37.7956 41.8445 38.3372C40.8183 38.8646 39.6638 39.1283 38.381 39.1283C36.9414 39.1283 35.6372 38.8076 34.4684 38.1662C33.3139 37.5105 32.4017 36.6054 31.7318 35.4509C31.0761 34.2964 30.7483 32.9851 30.7483 31.517C30.7483 30.0489 31.0761 28.7376 31.7318 27.5831C32.4017 26.4143 33.3139 25.5092 34.4684 24.8678C35.6372 24.2122 36.9342 23.8843 38.3596 23.8843C40.0415 23.8843 41.5024 24.2977 42.7425 25.1244C43.9825 25.9368 44.8377 27.0842 45.3081 28.5666H41.8659ZM58.8967 32.8212C58.8967 33.2488 58.8682 33.6336 58.8112 33.9757H50.1523C50.2236 34.8309 50.5229 35.5008 51.0503 35.9854C51.5777 36.47 52.2262 36.7123 52.9959 36.7123C54.1076 36.7123 54.8987 36.2349 55.369 35.2799H58.5974C58.2553 36.4201 57.5997 37.3609 56.6305 38.102C55.6612 38.829 54.4711 39.1924 53.06 39.1924C51.9197 39.1924 50.8935 38.943 49.9813 38.4441C49.0833 37.931 48.3778 37.2112 47.8647 36.2847C47.3658 35.3583 47.1164 34.2893 47.1164 33.0777C47.1164 31.852 47.3658 30.7758 47.8647 29.8494C48.3635 28.9229 49.0619 28.2102 49.9599 27.7114C50.8579 27.2125 51.8912 26.9631 53.06 26.9631C54.186 26.9631 55.1909 27.2054 56.0746 27.69C56.9725 28.1746 57.6638 28.8659 58.1484 29.7638C58.6473 30.6475 58.8967 31.6667 58.8967 32.8212ZM55.7966 31.966C55.7824 31.1963 55.5044 30.5834 54.9628 30.1273C54.4212 29.6569 53.7584 29.4218 52.9745 29.4218C52.2333 29.4218 51.6062 29.6498 51.093 30.1059C50.5942 30.5478 50.2877 31.1678 50.1737 31.966H55.7966ZM64.5664 29.6142V35.344C64.5664 35.7431 64.6591 36.0353 64.8444 36.2206C65.0439 36.3916 65.3718 36.4772 65.8279 36.4772H67.2176V39H65.3361C62.8133 39 61.5519 37.7742 61.5519 35.3226V29.6142H60.1408V27.1555H61.5519V24.2264H64.5664V27.1555H67.2176V29.6142H64.5664ZM77.4581 24.0768V39H74.4649V24.0768H77.4581ZM86.979 26.9844C88.3901 26.9844 89.5304 27.4334 90.3998 28.3314C91.2693 29.2151 91.704 30.4551 91.704 32.0515V39H88.7108V32.4577C88.7108 31.517 88.4756 30.7972 88.0053 30.2983C87.5349 29.7852 86.8935 29.5287 86.0811 29.5287C85.2544 29.5287 84.5987 29.7852 84.1141 30.2983C83.6438 30.7972 83.4086 31.517 83.4086 32.4577V39H80.4154V27.1555H83.4086V28.6307C83.8077 28.1176 84.3137 27.7185 84.9266 27.4334C85.5537 27.1341 86.2379 26.9844 86.979 26.9844ZM109.8 24.0768V26.4927H105.824V39H102.83V26.4927H98.8538V24.0768H109.8ZM117.244 39.1924C116.103 39.1924 115.077 38.943 114.165 38.4441C113.253 37.931 112.533 37.2112 112.006 36.2847C111.493 35.3583 111.236 34.2893 111.236 33.0777C111.236 31.8662 111.5 30.7972 112.027 29.8707C112.569 28.9443 113.303 28.2316 114.229 27.7327C115.156 27.2196 116.189 26.9631 117.329 26.9631C118.47 26.9631 119.503 27.2196 120.429 27.7327C121.356 28.2316 122.083 28.9443 122.61 29.8707C123.152 30.7972 123.423 31.8662 123.423 33.0777C123.423 34.2893 123.145 35.3583 122.589 36.2847C122.047 37.2112 121.306 37.931 120.365 38.4441C119.439 38.943 118.398 39.1924 117.244 39.1924ZM117.244 36.5841C117.785 36.5841 118.291 36.4558 118.762 36.1992C119.246 35.9284 119.631 35.5293 119.916 35.0019C120.201 34.4746 120.344 33.8332 120.344 33.0777C120.344 31.9517 120.045 31.0894 119.446 30.4908C118.862 29.8779 118.142 29.5714 117.287 29.5714C116.431 29.5714 115.712 29.8779 115.127 30.4908C114.557 31.0894 114.272 31.9517 114.272 33.0777C114.272 34.2038 114.55 35.0732 115.106 35.6861C115.676 36.2847 116.389 36.5841 117.244 36.5841ZM136.8 27.1555V39H133.785V37.5034C133.401 38.0165 132.895 38.4227 132.267 38.7221C131.654 39.0071 130.985 39.1497 130.258 39.1497C129.331 39.1497 128.512 38.9572 127.799 38.5724C127.086 38.1733 126.523 37.596 126.11 36.8406C125.711 36.0709 125.511 35.1587 125.511 34.104V27.1555H128.505V33.6764C128.505 34.6171 128.74 35.344 129.21 35.8571C129.68 36.356 130.322 36.6054 131.134 36.6054C131.961 36.6054 132.609 36.356 133.08 35.8571C133.55 35.344 133.785 34.6171 133.785 33.6764V27.1555H136.8ZM138.984 33.0777C138.984 31.852 139.233 30.783 139.732 29.8707C140.231 28.9443 140.922 28.2316 141.806 27.7327C142.689 27.2196 143.701 26.9631 144.842 26.9631C146.31 26.9631 147.521 27.3336 148.476 28.0748C149.445 28.8017 150.094 29.828 150.422 31.1535H147.193C147.022 30.6404 146.73 30.2413 146.317 29.9563C145.918 29.6569 145.419 29.5073 144.82 29.5073C143.965 29.5073 143.288 29.8209 142.789 30.448C142.29 31.0609 142.041 31.9375 142.041 33.0777C142.041 34.2038 142.29 35.0803 142.789 35.7075C143.288 36.3204 143.965 36.6268 144.82 36.6268C146.032 36.6268 146.823 36.0852 147.193 35.0019H150.422C150.094 36.2847 149.445 37.3039 148.476 38.0593C147.507 38.8147 146.295 39.1924 144.842 39.1924C143.701 39.1924 142.689 38.943 141.806 38.4441C140.922 37.931 140.231 37.2183 139.732 36.3061C139.233 35.3797 138.984 34.3035 138.984 33.0777ZM159.285 26.9844C160.183 26.9844 160.981 27.184 161.68 27.5831C162.378 27.9679 162.92 28.5452 163.305 29.3149C163.704 30.0703 163.903 30.9825 163.903 32.0515V39H160.91V32.4577C160.91 31.517 160.675 30.7972 160.205 30.2983C159.734 29.7852 159.093 29.5287 158.28 29.5287C157.454 29.5287 156.798 29.7852 156.313 30.2983C155.843 30.7972 155.608 31.517 155.608 32.4577V39H152.615V23.1788H155.608V28.6307C155.993 28.1176 156.506 27.7185 157.147 27.4334C157.789 27.1341 158.501 26.9844 159.285 26.9844Z"/>
</mask>
<path d="M41.8659 28.5666C41.5238 27.9394 41.0535 27.4619 40.4548 27.1341C39.8562 26.8063 39.1578 26.6424 38.3596 26.6424C37.4759 26.6424 36.6919 26.8419 36.0078 27.241C35.3236 27.6401 34.7891 28.2102 34.4043 28.9514C34.0194 29.6926 33.827 30.5478 33.827 31.517C33.827 32.5147 34.0194 33.3842 34.4043 34.1254C34.8034 34.8665 35.3521 35.4367 36.0505 35.8358C36.749 36.2349 37.5614 36.4344 38.4879 36.4344C39.6281 36.4344 40.5617 36.1351 41.2886 35.5364C42.0156 34.9235 42.493 34.0755 42.7211 32.9922H37.5899V30.7046H45.6715V33.3129C45.472 34.3534 45.0444 35.3155 44.3887 36.1992C43.7331 37.0829 42.885 37.7956 41.8445 38.3372C40.8183 38.8646 39.6638 39.1283 38.381 39.1283C36.9414 39.1283 35.6372 38.8076 34.4684 38.1662C33.3139 37.5105 32.4017 36.6054 31.7318 35.4509C31.0761 34.2964 30.7483 32.9851 30.7483 31.517C30.7483 30.0489 31.0761 28.7376 31.7318 27.5831C32.4017 26.4143 33.3139 25.5092 34.4684 24.8678C35.6372 24.2122 36.9342 23.8843 38.3596 23.8843C40.0415 23.8843 41.5024 24.2977 42.7425 25.1244C43.9825 25.9368 44.8377 27.0842 45.3081 28.5666H41.8659ZM58.8967 32.8212C58.8967 33.2488 58.8682 33.6336 58.8112 33.9757H50.1523C50.2236 34.8309 50.5229 35.5008 51.0503 35.9854C51.5777 36.47 52.2262 36.7123 52.9959 36.7123C54.1076 36.7123 54.8987 36.2349 55.369 35.2799H58.5974C58.2553 36.4201 57.5997 37.3609 56.6305 38.102C55.6612 38.829 54.4711 39.1924 53.06 39.1924C51.9197 39.1924 50.8935 38.943 49.9813 38.4441C49.0833 37.931 48.3778 37.2112 47.8647 36.2847C47.3658 35.3583 47.1164 34.2893 47.1164 33.0777C47.1164 31.852 47.3658 30.7758 47.8647 29.8494C48.3635 28.9229 49.0619 28.2102 49.9599 27.7114C50.8579 27.2125 51.8912 26.9631 53.06 26.9631C54.186 26.9631 55.1909 27.2054 56.0746 27.69C56.9725 28.1746 57.6638 28.8659 58.1484 29.7638C58.6473 30.6475 58.8967 31.6667 58.8967 32.8212ZM55.7966 31.966C55.7824 31.1963 55.5044 30.5834 54.9628 30.1273C54.4212 29.6569 53.7584 29.4218 52.9745 29.4218C52.2333 29.4218 51.6062 29.6498 51.093 30.1059C50.5942 30.5478 50.2877 31.1678 50.1737 31.966H55.7966ZM64.5664 29.6142V35.344C64.5664 35.7431 64.6591 36.0353 64.8444 36.2206C65.0439 36.3916 65.3718 36.4772 65.8279 36.4772H67.2176V39H65.3361C62.8133 39 61.5519 37.7742 61.5519 35.3226V29.6142H60.1408V27.1555H61.5519V24.2264H64.5664V27.1555H67.2176V29.6142H64.5664ZM77.4581 24.0768V39H74.4649V24.0768H77.4581ZM86.979 26.9844C88.3901 26.9844 89.5304 27.4334 90.3998 28.3314C91.2693 29.2151 91.704 30.4551 91.704 32.0515V39H88.7108V32.4577C88.7108 31.517 88.4756 30.7972 88.0053 30.2983C87.5349 29.7852 86.8935 29.5287 86.0811 29.5287C85.2544 29.5287 84.5987 29.7852 84.1141 30.2983C83.6438 30.7972 83.4086 31.517 83.4086 32.4577V39H80.4154V27.1555H83.4086V28.6307C83.8077 28.1176 84.3137 27.7185 84.9266 27.4334C85.5537 27.1341 86.2379 26.9844 86.979 26.9844ZM109.8 24.0768V26.4927H105.824V39H102.83V26.4927H98.8538V24.0768H109.8ZM117.244 39.1924C116.103 39.1924 115.077 38.943 114.165 38.4441C113.253 37.931 112.533 37.2112 112.006 36.2847C111.493 35.3583 111.236 34.2893 111.236 33.0777C111.236 31.8662 111.5 30.7972 112.027 29.8707C112.569 28.9443 113.303 28.2316 114.229 27.7327C115.156 27.2196 116.189 26.9631 117.329 26.9631C118.47 26.9631 119.503 27.2196 120.429 27.7327C121.356 28.2316 122.083 28.9443 122.61 29.8707C123.152 30.7972 123.423 31.8662 123.423 33.0777C123.423 34.2893 123.145 35.3583 122.589 36.2847C122.047 37.2112 121.306 37.931 120.365 38.4441C119.439 38.943 118.398 39.1924 117.244 39.1924ZM117.244 36.5841C117.785 36.5841 118.291 36.4558 118.762 36.1992C119.246 35.9284 119.631 35.5293 119.916 35.0019C120.201 34.4746 120.344 33.8332 120.344 33.0777C120.344 31.9517 120.045 31.0894 119.446 30.4908C118.862 29.8779 118.142 29.5714 117.287 29.5714C116.431 29.5714 115.712 29.8779 115.127 30.4908C114.557 31.0894 114.272 31.9517 114.272 33.0777C114.272 34.2038 114.55 35.0732 115.106 35.6861C115.676 36.2847 116.389 36.5841 117.244 36.5841ZM136.8 27.1555V39H133.785V37.5034C133.401 38.0165 132.895 38.4227 132.267 38.7221C131.654 39.0071 130.985 39.1497 130.258 39.1497C129.331 39.1497 128.512 38.9572 127.799 38.5724C127.086 38.1733 126.523 37.596 126.11 36.8406C125.711 36.0709 125.511 35.1587 125.511 34.104V27.1555H128.505V33.6764C128.505 34.6171 128.74 35.344 129.21 35.8571C129.68 36.356 130.322 36.6054 131.134 36.6054C131.961 36.6054 132.609 36.356 133.08 35.8571C133.55 35.344 133.785 34.6171 133.785 33.6764V27.1555H136.8ZM138.984 33.0777C138.984 31.852 139.233 30.783 139.732 29.8707C140.231 28.9443 140.922 28.2316 141.806 27.7327C142.689 27.2196 143.701 26.9631 144.842 26.9631C146.31 26.9631 147.521 27.3336 148.476 28.0748C149.445 28.8017 150.094 29.828 150.422 31.1535H147.193C147.022 30.6404 146.73 30.2413 146.317 29.9563C145.918 29.6569 145.419 29.5073 144.82 29.5073C143.965 29.5073 143.288 29.8209 142.789 30.448C142.29 31.0609 142.041 31.9375 142.041 33.0777C142.041 34.2038 142.29 35.0803 142.789 35.7075C143.288 36.3204 143.965 36.6268 144.82 36.6268C146.032 36.6268 146.823 36.0852 147.193 35.0019H150.422C150.094 36.2847 149.445 37.3039 148.476 38.0593C147.507 38.8147 146.295 39.1924 144.842 39.1924C143.701 39.1924 142.689 38.943 141.806 38.4441C140.922 37.931 140.231 37.2183 139.732 36.3061C139.233 35.3797 138.984 34.3035 138.984 33.0777ZM159.285 26.9844C160.183 26.9844 160.981 27.184 161.68 27.5831C162.378 27.9679 162.92 28.5452 163.305 29.3149C163.704 30.0703 163.903 30.9825 163.903 32.0515V39H160.91V32.4577C160.91 31.517 160.675 30.7972 160.205 30.2983C159.734 29.7852 159.093 29.5287 158.28 29.5287C157.454 29.5287 156.798 29.7852 156.313 30.2983C155.843 30.7972 155.608 31.517 155.608 32.4577V39H152.615V23.1788H155.608V28.6307C155.993 28.1176 156.506 27.7185 157.147 27.4334C157.789 27.1341 158.501 26.9844 159.285 26.9844Z" fill="#161513"/>
<path d="M41.8659 28.5666L41.5809 28.722L41.6732 28.8912H41.8659V28.5666ZM34.4043 28.9514L34.1161 28.8018L34.4043 28.9514ZM34.4043 34.1254L34.1161 34.275L34.1184 34.2793L34.4043 34.1254ZM36.0505 35.8358L35.8895 36.1177L36.0505 35.8358ZM41.2886 35.5364L41.4951 35.7871L41.4979 35.7847L41.2886 35.5364ZM42.7211 32.9922L43.0388 33.0591L43.1213 32.6675H42.7211V32.9922ZM37.5899 32.9922H37.2652V33.3169H37.5899V32.9922ZM37.5899 30.7046V30.3799H37.2652V30.7046H37.5899ZM45.6715 30.7046H45.9962V30.3799H45.6715V30.7046ZM45.6715 33.3129L45.9904 33.3741L45.9962 33.3438V33.3129H45.6715ZM44.3887 36.1992L44.128 36.0058L44.3887 36.1992ZM41.8445 38.3372L41.9929 38.626L41.9944 38.6252L41.8445 38.3372ZM34.4684 38.1662L34.3081 38.4485L34.3122 38.4508L34.4684 38.1662ZM31.7318 35.4509L31.4494 35.6113L31.4509 35.6139L31.7318 35.4509ZM31.7318 27.5831L31.4501 27.4216L31.4494 27.4227L31.7318 27.5831ZM34.4684 24.8678L34.6261 25.1517L34.6273 25.151L34.4684 24.8678ZM42.7425 25.1244L42.5624 25.3945L42.5645 25.396L42.7425 25.1244ZM45.3081 28.5666V28.8912H45.7517L45.6176 28.4684L45.3081 28.5666ZM42.1509 28.4111C41.7806 27.732 41.2665 27.2084 40.6108 26.8493L40.2989 27.4189C40.8404 27.7154 41.2671 28.1468 41.5809 28.722L42.1509 28.4111ZM40.6108 26.8493C39.9568 26.4912 39.203 26.3177 38.3596 26.3177V26.967C39.1125 26.967 39.7556 27.1214 40.2989 27.4189L40.6108 26.8493ZM38.3596 26.3177C37.4252 26.3177 36.5836 26.5292 35.8442 26.9605L36.1714 27.5215C36.8003 27.1546 37.5265 26.967 38.3596 26.967V26.3177ZM35.8442 26.9605C35.104 27.3923 34.5277 28.0092 34.1161 28.8018L34.6924 29.101C35.0506 28.4113 35.5432 27.8879 36.1714 27.5215L35.8442 26.9605ZM34.1161 28.8018C33.7037 29.5961 33.5023 30.5041 33.5023 31.517H34.1517C34.1517 30.5915 34.3352 29.7891 34.6924 29.101L34.1161 28.8018ZM33.5023 31.517C33.5023 32.5567 33.703 33.4794 34.1161 34.275L34.6924 33.9757C34.3358 33.289 34.1517 32.4727 34.1517 31.517H33.5023ZM34.1184 34.2793C34.5449 35.0714 35.1358 35.687 35.8895 36.1177L36.2116 35.5539C35.5685 35.1863 35.0619 34.6617 34.6902 33.9714L34.1184 34.2793ZM35.8895 36.1177C36.6439 36.5488 37.5136 36.7591 38.4879 36.7591V36.1097C37.6092 36.1097 36.854 35.9209 36.2116 35.5539L35.8895 36.1177ZM38.4879 36.7591C39.687 36.7591 40.6984 36.4431 41.495 35.7871L41.0822 35.2858C40.425 35.827 39.5693 36.1097 38.4879 36.1097V36.7591ZM41.4979 35.7847C42.289 35.1177 42.7984 34.2011 43.0388 33.0591L42.4034 32.9253C42.1877 33.9499 41.7421 34.7294 41.0793 35.2882L41.4979 35.7847ZM42.7211 32.6675H37.5899V33.3169H42.7211V32.6675ZM37.9146 32.9922V30.7046H37.2652V32.9922H37.9146ZM37.5899 31.0292H45.6715V30.3799H37.5899V31.0292ZM45.3469 30.7046V33.3129H45.9962V30.7046H45.3469ZM45.3527 33.2518C45.1627 34.2425 44.7557 35.1597 44.128 36.0058L44.6495 36.3927C45.3331 35.4714 45.7813 34.4643 45.9904 33.3741L45.3527 33.2518ZM44.128 36.0058C43.5036 36.8474 42.6944 37.5288 41.6946 38.0492L41.9944 38.6252C43.0756 38.0624 43.9626 37.3185 44.6495 36.3927L44.128 36.0058ZM41.6961 38.0484C40.7207 38.5497 39.618 38.8036 38.381 38.8036V39.453C39.7095 39.453 40.9158 39.1795 41.9929 38.626L41.6961 38.0484ZM38.381 38.8036C36.9915 38.8036 35.7417 38.4946 34.6246 37.8815L34.3122 38.4508C35.5326 39.1206 36.8912 39.453 38.381 39.453V38.8036ZM34.6288 37.8838C33.5246 37.2568 32.6538 36.393 32.0126 35.288L31.4509 35.6139C32.1496 36.8179 33.1032 37.7643 34.3081 38.4485L34.6288 37.8838ZM32.0141 35.2906C31.3891 34.19 31.073 32.935 31.073 31.517H30.4236C30.4236 33.0352 30.7632 34.4028 31.4494 35.6113L32.0141 35.2906ZM31.073 31.517C31.073 30.099 31.3891 28.844 32.0141 27.7434L31.4494 27.4227C30.7632 28.6312 30.4236 29.9988 30.4236 31.517H31.073ZM32.0135 27.7445C32.6546 26.626 33.5244 25.7637 34.6261 25.1516L34.3107 24.584C33.1034 25.2547 32.1488 26.2026 31.4501 27.4216L32.0135 27.7445ZM34.6273 25.151C35.7444 24.5243 36.9862 24.209 38.3596 24.209V23.5597C36.8823 23.5597 35.53 23.9 34.3096 24.5846L34.6273 25.151ZM38.3596 24.209C39.9859 24.209 41.3823 24.6078 42.5624 25.3945L42.9226 24.8542C41.6225 23.9875 40.0971 23.5597 38.3596 23.5597V24.209ZM42.5645 25.396C43.7389 26.1653 44.5496 27.2498 44.9986 28.6648L45.6176 28.4684C45.1258 26.9186 44.2262 25.7083 42.9204 24.8528L42.5645 25.396ZM45.3081 28.2419H41.8659V28.8912H45.3081V28.2419ZM58.8112 33.9757V34.3004H59.0863L59.1315 34.0291L58.8112 33.9757ZM50.1523 33.9757V33.651H49.7994L49.8288 34.0027L50.1523 33.9757ZM51.0503 35.9854L50.8306 36.2245L51.0503 35.9854ZM55.369 35.2799V34.9552H55.167L55.0778 35.1364L55.369 35.2799ZM58.5974 35.2799L58.9084 35.3732L59.0338 34.9552H58.5974V35.2799ZM56.6305 38.102L56.8253 38.3618L56.8277 38.36L56.6305 38.102ZM49.9813 38.4441L49.8202 38.7261L49.8255 38.729L49.9813 38.4441ZM47.8647 36.2847L47.5788 36.4387L47.5806 36.4421L47.8647 36.2847ZM47.8647 29.8494L47.5788 29.6954L47.8647 29.8494ZM49.9599 27.7114L50.1176 27.9952L49.9599 27.7114ZM56.0746 27.69L55.9185 27.9747L55.9204 27.9757L56.0746 27.69ZM58.1484 29.7638L57.8627 29.9181L57.8657 29.9235L58.1484 29.7638ZM55.7966 31.966V32.2907H56.1274L56.1213 31.96L55.7966 31.966ZM54.9628 30.1273L54.7499 30.3725L54.7537 30.3757L54.9628 30.1273ZM51.093 30.1059L51.3083 30.349L51.3088 30.3486L51.093 30.1059ZM50.1737 31.966L49.8523 31.9201L49.7993 32.2907H50.1737V31.966ZM58.5721 32.8212C58.5721 33.2348 58.5444 33.6014 58.491 33.9223L59.1315 34.0291C59.192 33.6659 59.2214 33.2627 59.2214 32.8212H58.5721ZM58.8112 33.651H50.1523V34.3004H58.8112V33.651ZM49.8288 34.0027C49.9054 34.9221 50.2317 35.6742 50.8306 36.2245L51.27 35.7463C50.8141 35.3275 50.5418 34.7397 50.4759 33.9487L49.8288 34.0027ZM50.8306 36.2245C51.4226 36.7685 52.1514 37.037 52.9959 37.037V36.3877C52.3009 36.3877 51.7327 36.1716 51.27 35.7463L50.8306 36.2245ZM52.9959 37.037C53.5988 37.037 54.1352 36.9072 54.5908 36.6322C55.0472 36.3567 55.402 35.9479 55.6603 35.4233L55.0778 35.1364C54.8658 35.5669 54.5898 35.8743 54.2552 36.0763C53.9197 36.2787 53.5047 36.3877 52.9959 36.3877V37.037ZM55.369 35.6046H58.5974V34.9552H55.369V35.6046ZM58.2864 35.1866C57.9645 36.2596 57.3496 37.1434 56.4332 37.8441L56.8277 38.36C57.8498 37.5784 58.5462 36.5807 58.9084 35.3732L58.2864 35.1866ZM56.4356 37.8423C55.5315 38.5204 54.4128 38.8677 53.06 38.8677V39.5171C54.5293 39.5171 55.7909 39.1375 56.8253 38.3618L56.4356 37.8423ZM53.06 38.8677C51.9688 38.8677 50.997 38.6295 50.1371 38.1592L49.8255 38.729C50.79 39.2565 51.8707 39.5171 53.06 39.5171V38.8677ZM50.1424 38.1622C49.2973 37.6793 48.6337 37.0032 48.1487 36.1274L47.5806 36.4421C48.1218 37.4192 48.8693 38.1827 49.8202 38.726L50.1424 38.1622ZM48.1505 36.1308C47.6808 35.2584 47.441 34.2437 47.441 33.0777H46.7917C46.7917 34.3348 47.0508 35.4582 47.5788 36.4387L48.1505 36.1308ZM47.441 33.0777C47.441 31.8968 47.6811 30.8752 48.1505 30.0033L47.5788 29.6954C47.0505 30.6765 46.7917 31.8071 46.7917 33.0777H47.441ZM48.1505 30.0033C48.6207 29.1301 49.2753 28.4631 50.1176 27.9952L49.8022 27.4275C48.8486 27.9573 48.1063 28.7157 47.5788 29.6954L48.1505 30.0033ZM50.1176 27.9952C50.961 27.5266 51.9387 27.2877 53.06 27.2877V26.6384C51.8438 26.6384 50.7547 26.8984 49.8022 27.4275L50.1176 27.9952ZM53.06 27.2877C54.138 27.2877 55.088 27.5193 55.9185 27.9747L56.2307 27.4053C55.2937 26.8915 54.2341 26.6384 53.06 26.6384V27.2877ZM55.9204 27.9757C56.7626 28.4302 57.4082 29.0758 57.8627 29.918L58.4342 29.6096C57.9195 28.6559 57.1825 27.9189 56.2288 27.4042L55.9204 27.9757ZM57.8657 29.9235C58.3335 30.7521 58.5721 31.7148 58.5721 32.8212H59.2214C59.2214 31.6185 58.9612 30.543 58.4312 29.6042L57.8657 29.9235ZM56.1213 31.96C56.1055 31.1058 55.792 30.4011 55.172 29.8789L54.7537 30.3757C55.2169 30.7657 55.4593 31.2868 55.472 31.972L56.1213 31.96ZM55.1757 29.8821C54.5694 29.3556 53.8288 29.0971 52.9745 29.0971V29.7464C53.688 29.7464 54.273 29.9583 54.7499 30.3724L55.1757 29.8821ZM52.9745 29.0971C52.1607 29.0971 51.4548 29.3499 50.8773 29.8632L51.3088 30.3486C51.7575 29.9497 52.306 29.7464 52.9745 29.7464V29.0971ZM50.8778 29.8629C50.3098 30.3659 49.9748 31.0623 49.8523 31.9201L50.4951 32.0119C50.6006 31.2733 50.8786 30.7296 51.3083 30.349L50.8778 29.8629ZM50.1737 32.2907H55.7966V31.6413H50.1737V32.2907ZM64.5664 29.6142V29.2895H64.2418V29.6142H64.5664ZM64.8444 36.2206L64.6148 36.4502L64.6236 36.459L64.6331 36.4671L64.8444 36.2206ZM67.2176 36.4772H67.5423V36.1525H67.2176V36.4772ZM67.2176 39V39.3247H67.5423V39H67.2176ZM61.5519 29.6142H61.8766V29.2895H61.5519V29.6142ZM60.1408 29.6142H59.8161V29.9389H60.1408V29.6142ZM60.1408 27.1555V26.8308H59.8161V27.1555H60.1408ZM61.5519 27.1555V27.4802H61.8766V27.1555H61.5519ZM61.5519 24.2264V23.9017H61.2272V24.2264H61.5519ZM64.5664 24.2264H64.8911V23.9017H64.5664V24.2264ZM64.5664 27.1555H64.2418V27.4802H64.5664V27.1555ZM67.2176 27.1555H67.5423V26.8308H67.2176V27.1555ZM67.2176 29.6142V29.9389H67.5423V29.6142H67.2176ZM64.2418 29.6142V35.344H64.8911V29.6142H64.2418ZM64.2418 35.344C64.2418 35.785 64.3432 36.1786 64.6148 36.4502L65.074 35.991C64.975 35.892 64.8911 35.7012 64.8911 35.344H64.2418ZM64.6331 36.4671C64.9215 36.7143 65.3461 36.8018 65.8279 36.8018V36.1525C65.3975 36.1525 65.1664 36.0689 65.0557 35.9741L64.6331 36.4671ZM65.8279 36.8018H67.2176V36.1525H65.8279V36.8018ZM66.8929 36.4772V39H67.5423V36.4772H66.8929ZM67.2176 38.6753H65.3361V39.3247H67.2176V38.6753ZM65.3361 38.6753C64.1225 38.6753 63.2723 38.3804 62.7242 37.8478C62.1779 37.3169 61.8766 36.496 61.8766 35.3226H61.2272C61.2272 36.6009 61.5566 37.6186 62.2717 38.3135C62.985 39.0067 64.027 39.3247 65.3361 39.3247V38.6753ZM61.8766 35.3226V29.6142H61.2272V35.3226H61.8766ZM61.5519 29.2895H60.1408V29.9389H61.5519V29.2895ZM60.4655 29.6142V27.1555H59.8161V29.6142H60.4655ZM60.1408 27.4802H61.5519V26.8308H60.1408V27.4802ZM61.8766 27.1555V24.2264H61.2272V27.1555H61.8766ZM61.5519 24.5511H64.5664V23.9017H61.5519V24.5511ZM64.2418 24.2264V27.1555H64.8911V24.2264H64.2418ZM64.5664 27.4802H67.2176V26.8308H64.5664V27.4802ZM66.8929 27.1555V29.6142H67.5423V27.1555H66.8929ZM67.2176 29.2895H64.5664V29.9389H67.2176V29.2895ZM77.4581 24.0768H77.7828V23.7521H77.4581V24.0768ZM77.4581 39V39.3247H77.7828V39H77.4581ZM74.4649 39H74.1402V39.3247H74.4649V39ZM74.4649 24.0768V23.7521H74.1402V24.0768H74.4649ZM77.1334 24.0768V39H77.7828V24.0768H77.1334ZM77.4581 38.6753H74.4649V39.3247H77.4581V38.6753ZM74.7896 39V24.0768H74.1402V39H74.7896ZM74.4649 24.4014H77.4581V23.7521H74.4649V24.4014ZM90.3998 28.3314L90.1666 28.5572L90.1684 28.5591L90.3998 28.3314ZM91.704 39V39.3247H92.0287V39H91.704ZM88.7108 39H88.3861V39.3247H88.7108V39ZM88.0053 30.2983L87.7659 30.5178L87.769 30.5211L88.0053 30.2983ZM84.1141 30.2983L83.8781 30.0754L83.8779 30.0756L84.1141 30.2983ZM83.4086 39V39.3247H83.7333V39H83.4086ZM80.4154 39H80.0907V39.3247H80.4154V39ZM80.4154 27.1555V26.8308H80.0907V27.1555H80.4154ZM83.4086 27.1555H83.7333V26.8308H83.4086V27.1555ZM83.4086 28.6307H83.0839V29.577L83.6649 28.83L83.4086 28.6307ZM84.9266 27.4334L85.0635 27.7278L85.0664 27.7264L84.9266 27.4334ZM86.979 27.3091C88.3146 27.3091 89.3664 27.7308 90.1666 28.5572L90.6331 28.1055C89.6943 27.136 88.4656 26.6598 86.979 26.6598V27.3091ZM90.1684 28.5591C90.9623 29.366 91.3793 30.5148 91.3793 32.0515H92.0287C92.0287 30.3955 91.5763 29.0642 90.6313 28.1037L90.1684 28.5591ZM91.3793 32.0515V39H92.0287V32.0515H91.3793ZM91.704 38.6753H88.7108V39.3247H91.704V38.6753ZM89.0355 39V32.4577H88.3861V39H89.0355ZM89.0355 32.4577C89.0355 31.4654 88.787 30.6541 88.2415 30.0756L87.769 30.5211C88.1643 30.9403 88.3861 31.5686 88.3861 32.4577H89.0355ZM88.2446 30.0789C87.7023 29.4874 86.9679 29.204 86.0811 29.204V29.8533C86.8192 29.8533 87.3675 30.0831 87.7659 30.5177L88.2446 30.0789ZM86.0811 29.204C85.1817 29.204 84.4346 29.4861 83.8781 30.0754L84.3502 30.5213C84.7629 30.0843 85.3271 29.8533 86.0811 29.8533V29.204ZM83.8779 30.0756C83.3324 30.6541 83.0839 31.4654 83.0839 32.4577H83.7333C83.7333 31.5686 83.9551 30.9403 84.3504 30.5211L83.8779 30.0756ZM83.0839 32.4577V39H83.7333V32.4577H83.0839ZM83.4086 38.6753H80.4154V39.3247H83.4086V38.6753ZM80.7401 39V27.1555H80.0907V39H80.7401ZM80.4154 27.4802H83.4086V26.8308H80.4154V27.4802ZM83.0839 27.1555V28.6307H83.7333V27.1555H83.0839ZM83.6649 28.83C84.031 28.3593 84.4954 27.992 85.0635 27.7278L84.7896 27.139C84.1319 27.4449 83.5843 27.8759 83.1523 28.4314L83.6649 28.83ZM85.0664 27.7264C85.647 27.4493 86.283 27.3091 86.979 27.3091V26.6598C86.1928 26.6598 85.4604 26.8189 84.7867 27.1404L85.0664 27.7264ZM109.8 24.0768H110.125V23.7521H109.8V24.0768ZM109.8 26.4927V26.8174H110.125V26.4927H109.8ZM105.824 26.4927V26.168H105.499V26.4927H105.824ZM105.824 39V39.3247H106.148V39H105.824ZM102.83 39H102.506V39.3247H102.83V39ZM102.83 26.4927H103.155V26.168H102.83V26.4927ZM98.8538 26.4927H98.5291V26.8174H98.8538V26.4927ZM98.8538 24.0768V23.7521H98.5291V24.0768H98.8538ZM109.476 24.0768V26.4927H110.125V24.0768H109.476ZM109.8 26.168H105.824V26.8174H109.8V26.168ZM105.499 26.4927V39H106.148V26.4927H105.499ZM105.824 38.6753H102.83V39.3247H105.824V38.6753ZM103.155 39V26.4927H102.506V39H103.155ZM102.83 26.168H98.8538V26.8174H102.83V26.168ZM99.1785 26.4927V24.0768H98.5291V26.4927H99.1785ZM98.8538 24.4014H109.8V23.7521H98.8538V24.4014ZM114.165 38.4441L114.006 38.7271L114.009 38.729L114.165 38.4441ZM112.006 36.2847L111.722 36.4421L111.723 36.4454L112.006 36.2847ZM112.027 29.8707L111.747 29.7069L111.745 29.7101L112.027 29.8707ZM114.229 27.7327L114.383 28.0186L114.386 28.0168L114.229 27.7327ZM120.429 27.7327L120.272 28.0168L120.275 28.0186L120.429 27.7327ZM122.61 29.8707L122.328 30.0314L122.33 30.0346L122.61 29.8707ZM122.589 36.2847L122.31 36.1177L122.308 36.1209L122.589 36.2847ZM120.365 38.4441L120.519 38.73L120.521 38.7292L120.365 38.4441ZM118.762 36.1992L118.917 36.4843L118.92 36.4827L118.762 36.1992ZM119.916 35.0019L120.202 35.1563L119.916 35.0019ZM119.446 30.4908L119.211 30.7149L119.216 30.7203L119.446 30.4908ZM115.127 30.4908L114.892 30.2667L114.892 30.2668L115.127 30.4908ZM115.106 35.6861L114.865 35.9043L114.871 35.91L115.106 35.6861ZM117.244 38.8677C116.153 38.8677 115.181 38.6295 114.321 38.1592L114.009 38.729C114.974 39.2565 116.054 39.5171 117.244 39.5171V38.8677ZM114.324 38.1611C113.464 37.6774 112.787 37.0004 112.288 36.1241L111.723 36.4454C112.279 37.422 113.041 38.1846 114.006 38.7271L114.324 38.1611ZM112.29 36.1274C111.807 35.2557 111.561 34.2423 111.561 33.0777H110.911C110.911 34.3363 111.178 35.4609 111.722 36.4421L112.29 36.1274ZM111.561 33.0777C111.561 31.9147 111.813 30.9025 112.309 30.0314L111.745 29.7101C111.186 30.6919 110.911 31.8177 110.911 33.0777H111.561ZM112.307 30.0346C112.819 29.1586 113.51 28.4886 114.383 28.0186L114.075 27.4469C113.095 27.9746 112.318 28.73 111.747 29.7069L112.307 30.0346ZM114.386 28.0168C115.261 27.5323 116.24 27.2877 117.329 27.2877V26.6384C116.138 26.6384 115.05 26.9069 114.072 27.4487L114.386 28.0168ZM117.329 27.2877C118.419 27.2877 119.397 27.5323 120.272 28.0168L120.587 27.4487C119.608 26.9069 118.52 26.6384 117.329 26.6384V27.2877ZM120.275 28.0186C121.148 28.4882 121.83 29.1571 122.328 30.0314L122.892 29.7101C122.335 28.7314 121.564 27.975 120.583 27.4469L120.275 28.0186ZM122.33 30.0346C122.839 30.9052 123.098 31.9162 123.098 33.0777H123.747C123.747 31.8162 123.465 30.6892 122.89 29.7069L122.33 30.0346ZM123.098 33.0777C123.098 34.2377 122.832 35.2476 122.31 36.1177L122.867 36.4518C123.457 35.4689 123.747 34.3408 123.747 33.0777H123.098ZM122.308 36.1209C121.797 36.9964 121.099 37.6743 120.21 38.1591L120.521 38.7292C121.513 38.1877 122.298 37.426 122.869 36.4486L122.308 36.1209ZM120.211 38.1582C119.337 38.6292 118.35 38.8677 117.244 38.8677V39.5171C118.447 39.5171 119.541 39.2568 120.519 38.73L120.211 38.1582ZM117.244 36.9087C117.839 36.9087 118.399 36.7671 118.917 36.4843L118.606 35.9142C118.184 36.1444 117.732 36.2594 117.244 36.2594V36.9087ZM118.92 36.4827C119.463 36.1794 119.89 35.7334 120.202 35.1563L119.631 34.8475C119.372 35.3252 119.03 35.6774 118.603 35.9158L118.92 36.4827ZM120.202 35.1563C120.518 34.5708 120.669 33.8733 120.669 33.0777H120.019C120.019 33.793 119.884 34.3784 119.631 34.8475L120.202 35.1563ZM120.669 33.0777C120.669 31.895 120.353 30.9387 119.675 30.2612L119.216 30.7203C119.736 31.2401 120.019 32.0085 120.019 33.0777H120.669ZM119.681 30.2667C119.035 29.5888 118.23 29.2467 117.287 29.2467V29.8961C118.054 29.8961 118.688 30.1669 119.211 30.7148L119.681 30.2667ZM117.287 29.2467C116.344 29.2467 115.538 29.5888 114.892 30.2667L115.362 30.7148C115.885 30.1669 116.519 29.8961 117.287 29.8961V29.2467ZM114.892 30.2668C114.246 30.9449 113.947 31.8991 113.947 33.0777H114.597C114.597 32.0044 114.868 31.2339 115.362 30.7147L114.892 30.2668ZM113.947 33.0777C113.947 34.255 114.238 35.2129 114.865 35.9042L115.346 35.468C114.862 34.9335 114.597 34.1525 114.597 33.0777H113.947ZM114.871 35.91C115.504 36.5755 116.303 36.9087 117.244 36.9087V36.2594C116.474 36.2594 115.847 35.994 115.341 35.4622L114.871 35.91ZM136.8 27.1555H137.125V26.8308H136.8V27.1555ZM136.8 39V39.3247H137.125V39H136.8ZM133.785 39H133.461V39.3247H133.785V39ZM133.785 37.5034H134.11V36.5293L133.526 37.3086L133.785 37.5034ZM132.267 38.7221L132.404 39.0165L132.407 39.0151L132.267 38.7221ZM127.799 38.5724L127.64 38.8557L127.645 38.8581L127.799 38.5724ZM126.11 36.8406L125.822 36.9901L125.825 36.9965L126.11 36.8406ZM125.511 27.1555V26.8308H125.187V27.1555H125.511ZM128.505 27.1555H128.829V26.8308H128.505V27.1555ZM129.21 35.8571L128.971 36.0766L128.974 36.0799L129.21 35.8571ZM133.08 35.8571L133.316 36.0799L133.319 36.0765L133.08 35.8571ZM133.785 27.1555V26.8308H133.461V27.1555H133.785ZM136.475 27.1555V39H137.125V27.1555H136.475ZM136.8 38.6753H133.785V39.3247H136.8V38.6753ZM134.11 39V37.5034H133.461V39H134.11ZM133.526 37.3086C133.175 37.7763 132.711 38.1504 132.128 38.429L132.407 39.0151C133.078 38.6951 133.626 38.2567 134.045 37.6982L133.526 37.3086ZM132.13 38.4277C131.564 38.6913 130.941 38.825 130.258 38.825V39.4743C131.028 39.4743 131.745 39.323 132.404 39.0165L132.13 38.4277ZM130.258 38.825C129.377 38.825 128.612 38.6425 127.953 38.2867L127.645 38.8581C128.411 39.272 129.285 39.4743 130.258 39.4743V38.825ZM127.958 38.2891C127.301 37.9215 126.781 37.3897 126.395 36.6848L125.825 36.9965C126.266 37.8023 126.872 38.4252 127.64 38.8557L127.958 38.2891ZM126.398 36.6912C126.028 35.9766 125.836 35.1178 125.836 34.104H125.187C125.187 35.1996 125.394 36.1653 125.822 36.9901L126.398 36.6912ZM125.836 34.104V27.1555H125.187V34.104H125.836ZM125.511 27.4802H128.505V26.8308H125.511V27.4802ZM128.18 27.1555V33.6764H128.829V27.1555H128.18ZM128.18 33.6764C128.18 34.6694 128.429 35.4851 128.971 36.0765L129.449 35.6377C129.051 35.2029 128.829 34.5648 128.829 33.6764H128.18ZM128.974 36.0799C129.517 36.6558 130.25 36.9301 131.134 36.9301V36.2808C130.393 36.2808 129.844 36.0562 129.446 35.6344L128.974 36.0799ZM131.134 36.9301C132.031 36.9301 132.772 36.657 133.316 36.0799L132.844 35.6344C132.447 36.055 131.891 36.2808 131.134 36.2808V36.9301ZM133.319 36.0765C133.861 35.4851 134.11 34.6694 134.11 33.6764H133.461C133.461 34.5648 133.239 35.2029 132.84 35.6377L133.319 36.0765ZM134.11 33.6764V27.1555H133.461V33.6764H134.11ZM133.785 27.4802H136.8V26.8308H133.785V27.4802ZM139.732 29.8707L140.017 30.0265L140.018 30.0247L139.732 29.8707ZM141.806 27.7327L141.965 28.0155L141.969 28.0135L141.806 27.7327ZM148.476 28.0748L148.277 28.3314L148.281 28.3346L148.476 28.0748ZM150.422 31.1535V31.4782H150.837L150.737 31.0756L150.422 31.1535ZM147.193 31.1535L146.885 31.2562L146.959 31.4782H147.193V31.1535ZM146.317 29.9563L146.122 30.2162L146.133 30.2235L146.317 29.9563ZM142.789 30.448L143.041 30.653L143.043 30.6501L142.789 30.448ZM142.789 35.7075L142.535 35.9096L142.537 35.9124L142.789 35.7075ZM147.193 35.0019V34.6773H146.961L146.886 34.8968L147.193 35.0019ZM150.422 35.0019L150.736 35.0823L150.84 34.6773H150.422V35.0019ZM148.476 38.0593L148.676 38.3154L148.476 38.0593ZM141.806 38.4441L141.643 38.7249L141.646 38.7269L141.806 38.4441ZM139.732 36.3061L139.446 36.4601L139.447 36.4619L139.732 36.3061ZM139.308 33.0777C139.308 31.8966 139.548 30.8831 140.017 30.0265L139.447 29.715C138.918 30.6828 138.659 31.8073 138.659 33.0777H139.308ZM140.018 30.0247C140.489 29.1501 141.137 28.4831 141.965 28.0155L141.646 27.45C140.707 27.9802 139.973 28.7384 139.446 29.7168L140.018 30.0247ZM141.969 28.0135C142.797 27.5324 143.752 27.2877 144.842 27.2877V26.6384C143.651 26.6384 142.581 26.9069 141.643 27.452L141.969 28.0135ZM144.842 27.2877C146.254 27.2877 147.391 27.6432 148.277 28.3313L148.675 27.8183C147.652 27.0241 146.366 26.6384 144.842 26.6384V27.2877ZM148.281 28.3346C149.183 29.0109 149.794 29.9688 150.107 31.2315L150.737 31.0756C150.394 29.6871 149.708 28.5926 148.671 27.8151L148.281 28.3346ZM150.422 30.8289H147.193V31.4782H150.422V30.8289ZM147.501 31.0509C147.31 30.4764 146.977 30.0172 146.501 29.689L146.133 30.2235C146.483 30.4655 146.735 30.8045 146.885 31.2562L147.501 31.0509ZM146.512 29.6965C146.046 29.3471 145.475 29.1826 144.82 29.1826V29.832C145.363 29.832 145.79 29.9668 146.122 30.216L146.512 29.6965ZM144.82 29.1826C143.874 29.1826 143.1 29.5355 142.535 30.2459L143.043 30.6501C143.476 30.1062 144.056 29.832 144.82 29.832V29.1826ZM142.537 30.243C141.974 30.9347 141.716 31.895 141.716 33.0777H142.366C142.366 31.9799 142.606 31.1871 143.041 30.653L142.537 30.243ZM141.716 33.0777C141.716 34.248 141.975 35.2057 142.535 35.9096L143.043 35.5054C142.605 34.955 142.366 34.1595 142.366 33.0777H141.716ZM142.537 35.9124C143.103 36.6079 143.877 36.9515 144.82 36.9515V36.3021C144.054 36.3021 143.473 36.0328 143.041 35.5025L142.537 35.9124ZM144.82 36.9515C145.474 36.9515 146.043 36.805 146.506 36.4885C146.969 36.1709 147.297 35.7016 147.501 35.107L146.886 34.8968C146.719 35.3855 146.466 35.7286 146.139 35.9527C145.81 36.1778 145.378 36.3021 144.82 36.3021V36.9515ZM147.193 35.3266H150.422V34.6773H147.193V35.3266ZM150.107 34.9215C149.796 36.1404 149.185 37.0955 148.277 37.8032L148.676 38.3154C149.706 37.5122 150.392 36.4291 150.736 35.0823L150.107 34.9215ZM148.277 37.8032C147.374 38.5064 146.237 38.8677 144.842 38.8677V39.5171C146.354 39.5171 147.64 39.123 148.676 38.3154L148.277 37.8032ZM144.842 38.8677C143.75 38.8677 142.795 38.6295 141.965 38.1614L141.646 38.7269C142.584 39.2565 143.653 39.5171 144.842 39.5171V38.8677ZM141.969 38.1633C141.137 37.6805 140.488 37.0115 140.017 36.1503L139.447 36.4619C139.974 37.4252 140.707 38.1815 141.643 38.7249L141.969 38.1633ZM140.018 36.1522C139.548 35.2803 139.308 34.2587 139.308 33.0777H138.659C138.659 34.3484 138.918 35.479 139.446 36.4601L140.018 36.1522ZM161.68 27.5831L161.519 27.865L161.523 27.8675L161.68 27.5831ZM163.305 29.3149L163.014 29.4601L163.018 29.4665L163.305 29.3149ZM163.903 39V39.3247H164.228V39H163.903ZM160.91 39H160.585V39.3247H160.91V39ZM160.205 30.2983L159.965 30.5178L159.968 30.5211L160.205 30.2983ZM156.313 30.2983L156.077 30.0754L156.077 30.0756L156.313 30.2983ZM155.608 39V39.3247H155.933V39H155.608ZM152.615 39H152.29V39.3247H152.615V39ZM152.615 23.1788V22.8541H152.29V23.1788H152.615ZM155.608 23.1788H155.933V22.8541H155.608V23.1788ZM155.608 28.6307H155.283V29.6048L155.868 28.8255L155.608 28.6307ZM157.147 27.4334L157.279 27.7302L157.285 27.7276L157.147 27.4334ZM159.285 27.3091C160.133 27.3091 160.875 27.4971 161.519 27.865L161.841 27.3012C161.088 26.8709 160.233 26.6598 159.285 26.6598V27.3091ZM161.523 27.8675C162.159 28.218 162.656 28.7444 163.014 29.4601L163.595 29.1697C163.183 28.346 162.597 27.7179 161.836 27.2987L161.523 27.8675ZM163.018 29.4665C163.387 30.1649 163.579 31.0223 163.579 32.0515H164.228C164.228 30.9427 164.021 29.9757 163.592 29.1632L163.018 29.4665ZM163.579 32.0515V39H164.228V32.0515H163.579ZM163.903 38.6753H160.91V39.3247H163.903V38.6753ZM161.235 39V32.4577H160.585V39H161.235ZM161.235 32.4577C161.235 31.4654 160.986 30.6541 160.441 30.0756L159.968 30.5211C160.364 30.9403 160.585 31.5686 160.585 32.4577H161.235ZM160.444 30.0789C159.902 29.4874 159.167 29.204 158.28 29.204V29.8533C159.018 29.8533 159.567 30.0831 159.965 30.5177L160.444 30.0789ZM158.28 29.204C157.381 29.204 156.634 29.4861 156.077 30.0754L156.549 30.5213C156.962 30.0843 157.526 29.8533 158.28 29.8533V29.204ZM156.077 30.0756C155.532 30.6541 155.283 31.4654 155.283 32.4577H155.933C155.933 31.5686 156.154 30.9403 156.55 30.5211L156.077 30.0756ZM155.283 32.4577V39H155.933V32.4577H155.283ZM155.608 38.6753H152.615V39.3247H155.608V38.6753ZM152.939 39V23.1788H152.29V39H152.939ZM152.615 23.5035H155.608V22.8541H152.615V23.5035ZM155.283 23.1788V28.6307H155.933V23.1788H155.283ZM155.868 28.8255C156.216 28.3608 156.683 27.9949 157.279 27.7301L157.015 27.1367C156.328 27.4421 155.769 27.8744 155.348 28.4359L155.868 28.8255ZM157.285 27.7276C157.878 27.4505 158.544 27.3091 159.285 27.3091V26.6598C158.459 26.6598 157.699 26.8177 157.01 27.1392L157.285 27.7276Z" fill="white" mask="url(#path-2-outside-1_14_64)"/>
</svg>
